<?xml version="1.0" encoding="utf-8"?>
<!-- Generator: Adobe Illustrator 23.0.6, SVG Export Plug-In . SVG Version: 6.00 Build 0)  -->
<svg version="1.1" id="レイヤー_1" xmlns="http://www.w3.org/2000/svg" xmlns:xlink="http://www.w3.org/1999/xlink" x="0px"
	 y="0px" viewBox="0 0 414.47 329.37" style="enable-background:new 0 0 414.47 329.37;" xml:space="preserve">
<style type="text/css">
	.st0{fill:#FFFFFF;}
</style>
<g>
	<path class="st0" d="M0,72.26c6.48-12.52,18.02-18.75,30.28-23.83c14.4-5.96,27.71-7.98,43.55-9.58
		c-6.6,4.14-13.78,14.36-18.32,19.92c-7.86,9.63-8.76,13.75-13.08,25.36c-2.77,7.46-1.61,10.4-9.05,7.44
		c-7.71-3.07-15.78-5.25-23.43-8.45C6.32,81.59,3.3,78.59,0,76.26C0,74.92,0,73.59,0,72.26z"/>
	<path class="st0" d="M342.67,88.92c-2.25,9.34-7.95,14.6-15.94,17.78c-1.53,0.61-3.21,1.2-4.82,1.23
		c-12.79,0.22-21.12,7.6-28.47,17.01c-10.28,13.18-21.4,25.38-36.46,33.57c-14.74,8.02-30.38,12.61-46.88,14.72
		c-2.89,0.37-5.8,0.59-9.36,0.95c0.63-2.2,1-3.61,1.44-4.99c3.36-10.65,1.29-19.01-8-24.86c-10.99-6.91-22.64-12.8-35.9-14.36
		c-9.03-1.06-16.92,0.45-18.12,9.27c-1.02,7.51,1.7,17.08,1.49,24.7c-0.04,1.32,0.26,2.65,0.31,3.98
		c0.32,10.32,0.36,10.44-9.1,13.94c-10.33,3.83-17.95,11.42-15.98,25.39c1.11,7.9,1.71,15.87,2.57,23.81
		c1.17,10.78,7.26,18.03,16.66,22.69c4.92,2.44,9.91,4.96,15.15,6.45c9.94,2.83,15.73,9.8,19.62,18.57
		c4.18,9.42,8.06,19.02,11.34,28.78c1.96,5.85,5.3,9.26,11.08,10.91c1.5,0.43,2.66,2.07,3.98,3.15c-1.41,1.04-2.67,2.65-4.24,3.03
		c-7.1,1.73-14.22,3.69-21.45,4.51c-13.67,1.54-23.87-5.49-30.41-16.35c-5.94-9.85-10.08-20.9-14.04-31.78
		c-2.05-5.65-4.22-9.5-10.21-12.08c-18.16-7.82-34.91-18.21-48.87-32.36c-17.2-17.43-28.51-38.28-31.56-62.74
		c-5.39-43.2,1.83-83.78,28.43-119.34c18.16-24.28,43-38.69,72.08-46.41c26.84-7.13,54.2-9.1,81.74-7.66
		c21.55,1.12,42.66,5.05,62.13,15.23c13.2,6.9,23.51,16.56,28.12,30.96c2.84,8.86,7.85,14.1,17.1,15.98
		c6.46,1.31,12.19,4.57,15.48,10.84c3.84,7.32,2.51,11.06-5.53,12.63c-6.98,1.36-14.22,1.31-21.3,2.24c-7.89,1.03-16,1.61-23.5,4.01
		c-5.82,1.86-11.12,5.83-16.14,9.54c-6.9,5.09-13.66,8.97-22.37,4.46c-0.74-0.38-1.99,0.24-3.01,0.4c0.42,1.13,0.67,3.12,1.28,3.24
		c4.48,0.83,9.31,2.52,13.47,1.55c4.95-1.15,9.97-3.98,13.83-7.37c5.74-5.05,11.99-8.6,19.37-9.63c10.2-1.43,20.5-2.08,30.74-3.23
		C332.87,90.76,337.26,89.83,342.67,88.92z M195.99,94.53c0.69-0.65,1.38-1.31,2.07-1.96c2.43,1.86,4.74,3.91,7.33,5.51
		c1.19,0.74,3.47,1.36,4.3,0.74c3.67-2.72,7.25-3.58,11.58-1.69c0.72,0.32,2.95-0.92,3.22-1.82c0.76-2.55,1.09-5.3,1.14-7.97
		c0.03-1.41-0.88-2.85-1.37-4.27c-1.02,0.9-2.42,1.6-3,2.72c-2.62,5.02-6.24,7.01-11.68,6.07c-8.84-1.53-11.59-4.58-12.67-13.68
		c-0.14-1.21-1.32-2.29-2.01-3.43c-0.87,0.88-1.77,1.73-2.6,2.64c-1.11,1.24-2.09,2.61-3.28,3.77c-0.96,0.93-2.14,1.63-3.22,2.43
		c1.27,0.87,2.45,2.21,3.84,2.51c2.62,0.56,4.23,1.22,3.97,4.48C193.49,91.82,195.14,93.21,195.99,94.53z"/>
	<path class="st0" d="M160.21,135.28c10.67,2.06,22.82,6.49,32.97,14.99c5.97,5,6.75,13.18,3.52,20.64
		c-4.28,9.89-12.06,16.57-20.47,22.69c-11.87,8.63-24.81,14.86-39.44,17.19c-0.82,0.13-1.67,0.44-2.46,0.34
		c-2.05-0.27-4.08-0.72-6.11-1.1c0.96-1.79,1.61-3.86,2.92-5.34c6.34-7.12,13-14.11,13.63-24.3c0.38-6.13-0.15-12.31,0.06-18.46
		c0.2-5.93,0.26-11.96,1.37-17.75C147.52,137.17,150.7,135.2,160.21,135.28z"/>
	<path class="st0" d="M269.56,154.86c3.69,11.31,4.02,21.88-2.7,31.18c-8.08,11.17-17.03,21.76-28.93,29.27
		c-1.26,0.79-2.58,1.57-3.97,2.05c-3.77,1.3-6.59-0.15-6.71-4.13c-0.24-8.56-2.99-16.16-6.8-23.71c-3.41-6.76-1.04-10.95,6.36-12.96
		c4.48-1.22,9.44-1.5,13.42-3.64c8.84-4.74,17.21-10.38,25.76-15.67C266.96,156.65,267.88,155.99,269.56,154.86z"/>
	<path class="st0" d="M400.47,0c7.89-0.08,14,5.4,14,12.55c0,6.88-6.41,13.11-13.66,13.29c-6.74,0.16-13.13-6.51-13.14-13.73
		C387.65,5.64,393.54,0.07,400.47,0z"/>
	<path class="st0" d="M150.34,254.91c13.79-5.04,26.98-12.4,42.35-11.55c4.08,0.23,8.18,1.32,12.11,2.53
		c1.8,0.55,3.22,2.35,4.81,3.58c-0.19,0.41-0.37,0.82-0.56,1.23c-1.04,0-2.16,0.26-3.1-0.04c-10.47-3.33-19.24,0.32-27.44,6.49
		c-0.27,0.2-0.56,0.38-0.79,0.61c-5.13,5.27-8.74,7.29-15.81,1.62c-2.72-2.19-8.42-1.68-11.93-2.89
		C150.1,255.97,150.22,255.44,150.34,254.91z"/>
	<path class="st0" d="M382.07,65.74c-0.07,5.74-2.6,8.27-8.2,8.19c-5.45-0.07-7.82-2.69-7.8-8.6c0.02-6.03,2.31-8.47,7.87-8.4
		C379.75,57.02,382.15,59.62,382.07,65.74z"/>
	<path class="st0" d="M409.5,46.91c-1.94,1.47-3.74,3.86-5.86,4.21c-3.81,0.63-5.04-2.3-5.05-5.76c-0.01-3.38,1.49-5.56,4.95-5.59
		C407.35,39.74,408.72,42.2,409.5,46.91z"/>
</g>
</svg>
