<?xml version="1.0" encoding="utf-8"?>
<!-- Generator: Adobe Illustrator 23.0.6, SVG Export Plug-In . SVG Version: 6.00 Build 0)  -->
<svg version="1.1" id="レイヤー_1" xmlns="http://www.w3.org/2000/svg" xmlns:xlink="http://www.w3.org/1999/xlink" x="0px"
	 y="0px" viewBox="0 0 1479 646.8" style="enable-background:new 0 0 1479 646.8;" xml:space="preserve">
<style type="text/css">
	.st0{display:none;}
	.st1{opacity:0.7;fill:#11497C;enable-background:new    ;}
	.st2{fill:#045782;}
	.st3{opacity:0.8;fill:#0B3153;enable-background:new    ;}
	.st4{opacity:0.4;fill:url(#SVGID_1_);enable-background:new    ;}
	.st5{fill:#033044;}
</style>
<g class="st0">
</g>
<g>
	<path class="st1" d="M-44.7,271.6c55.6-15.4,241.3-73.3,295.7-67.4s273.3,5.9,318.2,26c45,20.1,142,47.3,208.2,41.4
		s306.4,21.3,360.8,31.9s286.3-16.6,314.7,14.2c28.4,30.8,26,176.3,26,176.3L-44.7,468L-44.7,271.6L-44.7,271.6z"/>
	<path class="st2" d="M102,387.5c0,0,55.6-8.3,106.5-20.1s157.3-27.2,218.8-22.5s179.8,14.2,247.2,10.6c67.4-3.5,139.6-39,216.5-45
		c76.9-5.9,142-15.4,175.1,13s95.8,72.2,134.9,71c39-1.2,144.3-22.5,186.9-16.6s22.5,147.9,22.5,147.9H102V387.5z"/>
	<path class="st3" d="M102,387.5c0,0,55.6-8.3,106.5-20.1s157.3-27.2,218.8-22.5s179.8,14.2,247.2,10.6c67.4-3.5,139.6-39,216.5-45
		c76.9-5.9,142-15.4,175.1,13s95.8,72.2,134.9,71c39-1.2,144.3-22.5,186.9-16.6s22.5,147.9,22.5,147.9H102V387.5z"/>
	
		<linearGradient id="SVGID_1_" gradientUnits="userSpaceOnUse" x1="717.1497" y1="-450.5355" x2="717.1497" y2="-128.3151" gradientTransform="matrix(1 0 0 -1 0 75.4863)">
		<stop  offset="0" style="stop-color:#032B50"/>
		<stop  offset="9.361383e-02" style="stop-color:#093054"/>
		<stop  offset="0.2179" style="stop-color:#1A3E60"/>
		<stop  offset="0.3595" style="stop-color:#355573"/>
		<stop  offset="0.514" style="stop-color:#5C768E"/>
		<stop  offset="0.6789" style="stop-color:#8EA0B0"/>
		<stop  offset="0.8497" style="stop-color:#C9D2D9"/>
		<stop  offset="0.9888" style="stop-color:#FFFFFF"/>
	</linearGradient>
	<path class="st4" d="M1452.9,317.7c-28.4-30.8-260.2-3.5-314.7-14.2c-54.4-10.6-294.6-37.9-360.8-31.9
		c-66.2,5.9-163.2-21.3-208.2-41.4s-263.8-20.1-318.2-26s-240.1,52-295.7,67.4V468l146.7,2.5V526h1308.3c0,0,2-13.8,3.4-33.1
		l65.3,1.1C1478.9,494,1481.3,348.5,1452.9,317.7z"/>
	<path class="st5" d="M1640.4,320.7c0,0-44.3-33.9-56.8-39c-26-10.6-53.2-61.5-105.3-74.5c-52-13-173.9,97-205.8,106.5
		s-31.9,73.3-74.5,93.5c-42.6,20.1-117.1,31.9-156.1,26c-39-5.9-475.5-7.1-530-1.2c-54.4,5.9-212.9-27.2-225.9-31.9
		s-69.8-79.3-80.4-102.9s-52-56.8-118.3-60.3s-110-37.9-164.4-65.1s-105.3,48.5-105.3,48.5l0.6,426.5H1641L1640.4,320.7z"/>
	<path class="st5" d="M154.5,134.6c0.6-10.8-20.3-19.9-29.9,2.1c-5.3,12.2-8.5,15.6-12.4,17.9c-2.5-4.6-3.4-11.1-1.7-17.1
		c2.4-8.6-6.2-11-9.1-10.9c-2.8,0.1-11,6.2-6.3,20.7c2.2,6.6,1.8,13,0.1,18.7c-8.1,8.5-9.9,16.9-25.4,17.2
		c-30.4,0.6,9.6-44.1,11.7-58.4c2.1-14.3-8.7-14.8-13.8-3.2c-5.1,11.6-17.4,36.6-21.4,14.1s14.9-50.1,43.2-51.5
		c28.2-1.5,40.9-8.4,63.7-16.4c13.3-4.7,19.9-27-9.9-15.3c-5,2-9.3,3.5-13.1,4.6c-2.9-1.2-5.2-3.7-3.5-7.7
		c2.5-5.8,9.6-12.4,10.4-17.5s4.4-13.3-3.1-15.1c-7.5-1.9-14,3.6-16.9,13.3c-2.2,7.4-0.1,19.3-6,26.4c-1.4,1.7-2.8,3.3-4.2,4.7
		c-4.3,0.1-8.2,0-13.1,0.6c-2.9-7.1-1.8-12,1.3-19.2c3.5-8.1-4.7-14.5-10.2-11.4s-10.2,10.7-11.6,17c-1.4,6.5-2.5,14.3-4.5,20.1
		c-17.5,6.6-28.4,15.9-36.3,35.3c-18.6,45.7,19.8,65.2,1.8,78.1c-9.5,6.8-27.4-25.8-13.5-63.9s36.4-73.1,48.7-86.4
		c18.2-19.6-2.1-39.5-13.7-12.9C46.1,40.8,47.3,38,40.6,47.7c-1.4-1-2.6-2.8-3.4-5.6c-2.6-8.6-0.4-40.2-6.7-41.6
		c-18.4-4-11.1,15.9-9.8,28.8c0.9,9.7,7.9,25.2,7.4,38.7C21.5,80.2,18.6,88,13,88C3.4,87.9-3.9,79.3-1.7,55.3
		c2.2-23.9-5.3-25.8-9.8-25c-25,4.5-5.8,41.7,2.8,53.7s10.8,22.7,14.4,36.6c3.9,15.2-3,19.4-12.7,16.5
		C-41.3,127-32.1,68.7-53.6,79.5c-8.8,4.4-11,28.3,9.5,46.2c14.8,12.9,35.7,19.4,39.1,48.1c2,17.5,14.3,24.2,28.4,45.5
		c19.4,29.3,6.7,41.6,6.7,41.6l15.1,6.6c0,0-7.5-24-0.3-49.8c7.1-25.9,19.5-16.3,36.7-24c6.9-3.1,28.7-15.1,39.4-27
		C131.8,155,153.7,151,154.5,134.6z"/>
	<g>
		<path class="st5" d="M1498.8,42.3c-0.4-1.8-1-2.5-1-2.5C1498.2,40.6,1498.5,41.4,1498.8,42.3z"/>
		<path class="st5" d="M1514.4,171.1c-2.4-20.1-8.3-61.5-3.5-91.1c4.1-25.5-5.9,24.8-10.6,43.8s1.2,45-4.7,75.7
			c-2.6,13.3-7.5,22.1-12.7,28.2c2.9-10.1,5.8-23.6,7.9-41.2c5.9-48.5-4.7-59.1-4.7-72.2c0-12.6,22.2-45.2,12.8-72
			c0.7,2.8,1.2,8.2-1,17.6c-3.5,15.4-13,26-21.3,45c-8.3,18.9,2.4,46.1,2.4,61.5s-5.9,29.6-13,42.6c-1.6,2.9-3.4,6.3-5.2,9.9
			c5.7-30.6,13.1-73,12.3-86.8c-1.2-22.5-11.8-16.6-15.4-53.2c-3.5-36.7-7.1-39-1.2-66.2c0,0-10.6-3.5-11.8,29.6s-7.1,41.4,0,67.4
			s9.5,37.9,4.7,60.3c-1.5,6.9-2.8,16.1-4,25.6c-0.7-3.1-1.3-5.8-2-7.9c-4.7-15.4-4.7-39-4.7-47.3s-28.4-35.5-30.8-42.6
			c0,0,7.1,18.9,14.2,28.4s10.6,24.8,5.9,40.2c-1,3.2-1.7,5.8-2.2,8.1c-1.3-8.4-2.9-15.6-4.9-19.9c-9.5-20.1-29.6-33.1-30.8-69.8
			c-0.6-20.1-3.5,30.8,5.9,50.9c9.5,20.1,9.5,41.4,11.8,59.1s-2.4,58-2.4,58h15.1l0.3,3.5l20.1-3.5h13h13h5.9h15.4
			C1488.4,252.7,1516.8,191.2,1514.4,171.1z"/>
	</g>
	<path class="st5" d="M1234.6,348.3c-1.1-1.7-4.2-0.9-5.3-2.6s2.8-6.7,3.4-9.5s-0.2-5.9-4.4-6.7s-4.2,6.4-6.8,11.7
		c-2.6,5.3-5.9,7.5-9.3,9.7s-17.4,6.6-21.9,7.1s-12.7,12-18.9,20.9s-14.4,13.1-19.1,15c-4.8,1.9-8.1,4.1-9.3,2.5
		c-1.2-1.6,2.3-3.9,4.2-6.4c2-2.5,12.7-12,15.5-18.7s12.7-19.2,14.4-20.3s13.5-8.9,21.9-14.4s7.3-7.2,6.2-8.9
		c-1.1-1.7-4.5,0.5-6.2,1.6s-4.8,1.9-5.9,0.2c-1.1-1.7,3.1-8.1,7.1-13.1s11.5-6.4,14.9-8.6s2.8-6.7,2.3-11.2s-5.9,0.2-9.3,2.5
		c-3.4,2.2-4.2,6.4-5.6,6.1s0.9-4.2,2-9.8s4.8-9.2,6.8-11.7s1.7-8.4-1.3-14.8c-3-6.5-4.7-5.3-6.4-4.2c-1.7,1.1-2.3,3.9-1.4,7
		c0.8,3.1-0.6,10.1-1.2,12.9s-4,5-4.5,7.8c-0.6,2.8-0.9,11.5-3.2,15.4s-4.3,13.7-4.9,16.5s-6.8,11.7-10.2,13.9
		c-3.4,2.2-6.2,8.9-7.3,7.2s-0.5-4.5-1.4-7.6c-0.8-3.1,1.2-5.6,2-9.8c0.9-4.2,2.6-12.6,3.2-15.4s3.4-9.5,2.6-12.6s-3.6-3.7-5.6-1.2
		s-1.4,7-2.3,11.2s-3.5,16.8-4,19.6c-0.6,2.8-0.4,16-1.2,20.1c-0.9,4.2-3.4,9.5-7.4,14.5s-5.6,6.1-8.2,11.4s-14.9,15.9-16.9,18.4
		s-3.7,3.6-4.8,1.9c-1.1-1.7,2.8-6.7,5.1-10.6c2.3-3.9,5.7-13.4,9.3-17c3.7-3.6,6.5-10.3,7.4-14.5s-2.2-3.4-4.2-0.9
		s-9.3,9.7-11,10.8c-1.7,1.1-2.8-0.6-2.2-3.4c0.6-2.8-4.6-19.9-3.5-25.5s9.1-15.6,12.2-23.7s4.9-23.8,6.1-29.4s7.9-17.3,9.4-24.3
		c1.4-7-2.2-10.7-3-13.7c-0.8-3.1-3.9-2.3-6.2,1.6c-2.3,3.9-1.7,8.4-2.6,12.6c-0.9,4.2-4,12.3-6.6,17.6s-2.3,11.2-3.5,16.8
		s-6,14.8-8.2,18.7c-2.2,3.9-2.8-0.6-3.9-2.3c-1.1-1.7,0-7.3-1.3-14.8c-1.4-7.6-1.8-19.3-0.4-26.3s0.9-11.5-1.9-12
		c-2.8-0.6-5.9,0.2-7.9,2.7c-2,2.5,0.2,5.9,2.7,7.9s-0.1,14.6,0.7,24.9c0.8,10.4,0.7,24.9,2.6,29.7s3.3,12.3,5.7,21.6
		c2.5,9.3-1.6,36.1-2.5,40.3c-0.9,4.2-2.8-0.6-5.3-9.8c-2.5-9.3-10.5-26.9-13.8-32s-4.7-5.3-3.6-10.9s3.1-8.1,5.4-12
		s3.1-8.1,3.2-15.4c0-7.3-3.3-5.1-4.7-5.3c-1.4-0.3-2.3,3.9-3.4,9.5s-4.8,9.2-6.2,8.9s-0.5-4.5-3.6-10.9c-3-6.5-6.1-5.6-8.1-3.1
		s3,6.5,5,11.2c1.9,4.8,3.6,10.9,1.9,12s-3.9-2.3-7.8-4.5c-3.9-2.3-7.8-11.8-10-15.2c-2.2-3.4-0.8-10.4,0.7-17.4
		c1.4-7-1.1-9-2.7-15.1c-1.6-6.2-8.1-3.1-8.7-0.3c-0.6,2.8,2.7,7.9,3.3,12.3c0.5,4.5-0.3,8.7-2,9.8c-1.7,1.1-4.7-5.3-10-7.9
		s-6.9-8.7-10.3-13.8c-3.3-5.1-9.7-9.3-13.1-7.1c-3.4,2.2-2,9.8,1.3,14.8c3.3,5,20.6,13,26.8,18.6s8.9,13.5,13.3,20.2
		s13.4,13,19.5,18.6s13.3,20.2,18.3,31.5s5.5,23,4.9,25.8s-2.6,5.3-3.4,2.2c-0.8-3.1-4.1-8.1-6.1-12.9c-1.9-4.8-14.7-20.5-19.7-24.5
		s-19.2-20-22.8-23.7s-7.8-4.5-8.9-13.5s-3.6-10.9-8.1-10.4s-4.2,6.4-3.7,10.9s3.9,5.9,6.1,9.3s4.4,6.7,2.7,7.9
		c-1.7,1.1-11.8,0.5-14.8,1.3c-3.1,0.8-4.8,1.9-4.5,7.8s4.7,5.3,9.2,4.8s7.6-1.4,10.7-2.2c3.1-0.8,7.6-1.4,11.5,0.9
		s19.8,17.2,23.1,22.3c1.9,3,2.9,5.7,5.9,9.7c-5.2,1.2-15,2.2-19.1,1.4c-5.6-1.2-7.6,1.4-6.7,4.4c0.8,3.1,4.7,5.3,8.9,6.2
		s12.3-3.3,19.6-3.2c2.2,0,4.1,0.2,5.7,0.5c0.6,0.6,1.2,1.1,1.9,1.8c12.2,11.3,9.3,32.5,8.2,38.1l-4.6,18.7c0,0,19,6.8,21.3-4.3
		s4.9-23.8,8.9-28.8s6.5-10.3,14.6-14.5s12.3-3.3,17.1-5.2c4.8-1.9,6.7-4.4,15.4-4.1c8.7,0.3,16.5-2.4,21.3-4.3s8.1-4.1,12.6-4.7
		c4.5-0.5,4.2-6.4,3.4-9.5s-10.7,2.2-12.3,3.3c-1.6,1.1-12.3,3.3-18.2,3.5s-6.2,1.6-5.6-1.2c0.6-2.8,4.5-7.8,9.6-11.1
		s9-8.3,13.5-8.9c4.5-0.5,10.9-3.6,15.7-5.5c4.8-1.9,5.3-4.7,9.5-3.9c4.2,0.8,3.9,2.3,7,1.4C1237.6,354.7,1235.7,350,1234.6,348.3z"
		/>
</g>
</svg>
