<?xml version="1.0" encoding="utf-8"?>
<!-- Generator: Adobe Illustrator 23.0.6, SVG Export Plug-In . SVG Version: 6.00 Build 0)  -->
<svg version="1.1" id="レイヤー_1" xmlns="http://www.w3.org/2000/svg" xmlns:xlink="http://www.w3.org/1999/xlink" x="0px"
	 y="0px" viewBox="0 0 2219.56 330.26" style="enable-background:new 0 0 2219.56 330.26;" xml:space="preserve">
<style type="text/css">
	.st0{fill:#FFFFFF;}
</style>
<g>
	<path class="st0" d="M519,330.26c-1.79-7.93-0.2-10.4,7.61-11.81c2.29-0.41,4.63-0.67,6.88-1.25c4.61-1.18,7.23-5.64,5.92-10.19
		c-1.49-5.17-1.28-9.45,3.31-13.45c4.42-3.85,5.88-18.66,2.64-23.18c-2.74-3.82-2.21-7.27,0.13-10.59c1.66-2.35,1.46-3.73-0.22-6.05
		c-1.22-1.69-1.69-4.63-1.19-6.71c1.14-4.78,3.51-9.07,1.75-14.49c-0.82-2.54,1.1-5.97,1.84-9.27c-6.16,0.7-11.86,1.86-17.56,1.91
		c-27.52,0.26-46.45-16.46-49.91-43.72c-3.15-24.8,11.31-51.12,33.77-61.72c8.83-4.17,18.3-4.59,27.44-3.16
		c14.86,2.32,29.15,1.46,43.28-3.48c1.72-0.6,3.56-0.87,5.33-1.33c3.94-1.02,5.28,0.75,4.81,4.46c-1.06,8.42-2.25,16.83-3.17,25.26
		c-2.3,21.33-4.93,42.65-6.6,64.03c-2.15,27.52-3.58,55.1-5.13,82.66c-0.59,10.46-0.76,20.96-0.89,31.44
		c-0.05,3.94-0.79,5.72-5.45,4.98c-17.99-2.86-35.42,0.44-52.6,5.65C520.33,330.26,519.67,330.26,519,330.26z M505.51,173.9
		c-0.14,6.36,4.52,16.56,15.34,22.46c6.89,3.76,14.92,5.46,22.46,8.01c3.66,1.23,4.74-0.6,4.72-4.01
		c-0.02-4.49-0.12-9.03,0.43-13.47c2.25-18.33,4.67-36.63,7.16-54.93c0.52-3.78-1.08-5.06-4.42-4.5
		c-6.23,1.03-12.58,1.76-18.59,3.58C515.18,136.29,505.17,150.21,505.51,173.9z"/>
	<path class="st0" d="M0,72.26c6.48-12.52,18.02-18.75,30.28-23.83c14.4-5.96,27.71-7.98,43.55-9.58
		c-6.6,4.14-13.78,14.36-18.32,19.92c-7.86,9.63-8.76,13.75-13.08,25.36c-2.77,7.46-1.61,10.4-9.05,7.44
		c-7.71-3.07-15.78-5.25-23.43-8.45C6.32,81.59,3.3,78.59,0,76.26C0,74.92,0,73.59,0,72.26z"/>
	<path class="st0" d="M342.67,88.92c-2.25,9.34-7.95,14.6-15.94,17.78c-1.53,0.61-3.21,1.2-4.82,1.23
		c-12.79,0.22-21.12,7.6-28.47,17.01c-10.28,13.18-21.4,25.38-36.46,33.57c-14.74,8.02-30.38,12.61-46.88,14.72
		c-2.89,0.37-5.8,0.59-9.36,0.95c0.63-2.2,1-3.61,1.44-4.99c3.36-10.65,1.29-19.01-8-24.86c-10.99-6.91-22.64-12.8-35.9-14.36
		c-9.03-1.06-16.92,0.45-18.12,9.27c-1.02,7.51,1.7,17.08,1.49,24.7c-0.04,1.32,0.26,2.65,0.31,3.98
		c0.32,10.32,0.36,10.44-9.1,13.94c-10.33,3.83-17.95,11.42-15.98,25.39c1.11,7.9,1.71,15.87,2.57,23.81
		c1.17,10.78,7.26,18.03,16.66,22.69c4.92,2.44,9.91,4.96,15.15,6.45c9.94,2.83,15.73,9.8,19.62,18.57
		c4.18,9.42,8.06,19.02,11.34,28.78c1.96,5.85,5.3,9.26,11.08,10.91c1.5,0.43,2.66,2.07,3.98,3.15c-1.41,1.04-2.67,2.65-4.24,3.03
		c-7.1,1.73-14.22,3.69-21.45,4.51c-13.67,1.54-23.87-5.49-30.41-16.35c-5.94-9.85-10.08-20.9-14.04-31.78
		c-2.05-5.65-4.22-9.5-10.21-12.08c-18.16-7.82-34.91-18.21-48.87-32.36c-17.2-17.43-28.51-38.28-31.56-62.74
		c-5.39-43.2,1.83-83.78,28.43-119.34c18.16-24.28,43-38.69,72.08-46.41c26.84-7.13,54.2-9.1,81.74-7.66
		c21.55,1.12,42.66,5.05,62.13,15.23c13.2,6.9,23.51,16.56,28.12,30.96c2.84,8.86,7.85,14.1,17.1,15.98
		c6.46,1.31,12.19,4.57,15.48,10.84c3.84,7.32,2.51,11.06-5.53,12.63c-6.98,1.36-14.22,1.31-21.3,2.24c-7.89,1.03-16,1.61-23.5,4.01
		c-5.82,1.86-11.12,5.83-16.14,9.54c-6.9,5.09-13.66,8.97-22.37,4.46c-0.74-0.38-1.99,0.24-3.01,0.4c0.42,1.13,0.67,3.12,1.28,3.24
		c4.48,0.83,9.31,2.52,13.47,1.55c4.95-1.15,9.97-3.98,13.83-7.37c5.74-5.05,11.99-8.6,19.37-9.63c10.2-1.43,20.5-2.08,30.74-3.23
		C332.87,90.76,337.26,89.83,342.67,88.92z M195.99,94.53c0.69-0.65,1.38-1.31,2.07-1.96c2.43,1.86,4.74,3.91,7.33,5.51
		c1.19,0.74,3.47,1.36,4.3,0.74c3.67-2.72,7.25-3.58,11.58-1.69c0.72,0.32,2.95-0.92,3.22-1.82c0.76-2.55,1.09-5.3,1.14-7.97
		c0.03-1.41-0.88-2.85-1.37-4.27c-1.02,0.9-2.42,1.6-3,2.72c-2.62,5.02-6.24,7.01-11.68,6.07c-8.84-1.53-11.59-4.58-12.67-13.68
		c-0.14-1.21-1.32-2.29-2.01-3.43c-0.87,0.88-1.77,1.73-2.6,2.64c-1.11,1.24-2.09,2.61-3.28,3.77c-0.96,0.93-2.14,1.63-3.22,2.43
		c1.27,0.87,2.45,2.21,3.84,2.51c2.62,0.56,4.23,1.22,3.97,4.48C193.49,91.82,195.14,93.21,195.99,94.53z"/>
	<path class="st0" d="M1731.98,138.39c5.73-3.49,10.12-7.02,15.13-8.99c5.46-2.14,11.45-3.62,17.28-3.96
		c9.65-0.56,15.7,3.91,19.17,12.86c1.6,4.13,2.77,8.42,2.74,10.96c5.06-4.01,10.22-7.89,15.16-12.05
		c10.38-8.74,21.89-13.01,35.58-9.99c17.59,3.89,25.21,21.85,22.2,34.72c-3.71,15.82-9.35,31.21-14.46,46.68
		c-3.5,10.61-7.62,20.99-6.88,32.5c0.31,4.74,1.21,9.06,5.82,11.35c5.12,2.54,10.39,2.68,15.13-0.9c6.7-5.06,9.66-12.12,10.01-20.35
		c0.05-1.13,0.03-2.67-0.64-3.36c-1.93-1.97-4.02-4.68-6.4-5.11c-3.14-0.57-5.38,1.9-5.81,5.48c-0.36,3.01-1.66,6.11-5.17,5.28
		c-3.41-0.81-3.98-4.09-3.23-7.37c1.41-6.16,7.11-10.82,13.3-10.87c6.39-0.05,13.24,5.57,14.8,12.12
		c2.79,11.76-3.91,27.2-14.55,33.23c-8.13,4.61-16.48,5.6-24.49-0.03c-8.02-5.65-11.19-14.03-9.15-23.26
		c2.54-11.48,6.48-22.66,9.94-33.93c4-13.02,8.71-25.85,12.01-39.03c2.06-8.24,0.2-16.42-7.51-21.77
		c-8.74-6.07-20.36-4.12-25.68,5.08c-3.6,6.23-6.75,13.25-7.88,20.28c-2.81,17.55-4.62,35.29-6.23,53
		c-0.52,5.69,0.52,11.59,1.41,17.31c1.07,6.87-1.13,9.61-7.89,8.78c-6.27-0.77-12.54-1.6-18.82-2.32c-3.33-0.38-5.1-1.83-4.9-5.47
		c0.95-17.6,1.86-35.2,2.64-52.81c0.57-12.96,1.28-25.94,1.21-38.9c-0.05-9.09-6.12-13.43-15.12-11.95
		c-17.37,2.86-30.81,18.97-29.55,36.6c1.43,19.96,4.62,39.69,10.64,58.85c0.93,2.97,1.26,5.98,5.69,7.15
		c3.01,0.79,2.64,5.42,0.21,7.57c-3.06,2.69-6.62,5.25-10.41,6.59c-10.52,3.7-21.23,6.83-31.96,9.89c-1.39,0.39-4.39-0.65-4.71-1.66
		c-0.65-2.03-0.91-5.55,0.29-6.59c7.67-6.61,7.87-14.53,5.08-23.22c-1.02-3.17-2.57-6.2-3.26-9.43c-0.62-2.93-0.68-6.06-0.47-9.06
		c0.36-5.19-0.01-10.13-4.37-13.59c-5.32-4.22-7.27-8.74-3.1-14.96c0.68-1.01,0.13-3.61-0.77-4.75c-2.62-3.32-3.13-6.29-0.64-9.96
		c2.63-3.89,4.81-7.83,1.51-12.85c-1.1-1.67,0.05-4.81,0.13-7.28c0.28-8.5-2.69-11.84-11.2-12.59c-1.16-0.1-2.63,0.23-3.41-0.36
		c-1.18-0.9-2.39-2.35-2.63-3.73c-0.17-0.96,1.09-2.97,2.03-3.19c15.31-3.71,28.26-12.54,42.17-19.26
		c5.41-2.62,10.02,0.52,10.01,6.62C1731.97,123.47,1731.98,130.55,1731.98,138.39z"/>
	<path class="st0" d="M947.98,138.38c5.79-3.52,10.18-7.09,15.2-9c5.63-2.15,11.79-3.63,17.79-3.91
		c8.76-0.41,15.37,3.81,18.46,12.44c1.51,4.21,2.8,8.51,4.46,13.59c1.24-1.32,2.29-2.38,3.28-3.49c6.34-7.08,12.6-14.21,21.61-18.16
		c12.57-5.5,25.02-5.65,35.85,3.14c10.16,8.25,13.44,20.01,10.07,32.5c-3.94,14.6-9.08,28.88-13.93,43.22
		c-3.58,10.58-7.62,20.99-6.87,32.5c0.31,4.74,1.25,9.05,5.88,11.31c5.14,2.51,10.4,2.63,15.12-0.97
		c6.68-5.09,9.62-12.15,9.96-20.38c0.04-0.98-0.22-1.99-0.47-2.95c-0.88-3.41-2.89-5.83-6.6-5.63c-3.35,0.18-5.37,2.17-5.81,5.74
		c-0.36,2.99-1.68,6.09-5.22,5.18c-3.39-0.87-3.92-4.15-3.15-7.42c1.46-6.17,7.16-10.78,13.36-10.79
		c6.38-0.02,13.23,5.66,14.74,12.19c2.73,11.83-3.99,27.2-14.63,33.2c-8.14,4.59-16.51,5.56-24.49-0.11
		c-7.98-5.68-11.14-14.06-9.08-23.29c2.57-11.48,6.5-22.66,9.97-33.93c4-13.02,8.99-25.8,11.97-39.04
		c3.22-14.3-5.99-25.55-18.86-25.01c-9,0.38-14.89,5.71-17.37,13.57c-3.18,10.07-5.3,20.54-7.03,30.99
		c-1.73,10.48-2.8,21.12-3.43,31.73c-0.43,7.39-0.16,14.93,0.78,22.27c0.96,7.51-0.99,10.12-8.42,9.12
		c-6.1-0.82-12.21-1.57-18.32-2.26c-3.39-0.38-5.02-1.95-4.83-5.54c0.95-17.6,1.88-35.2,2.65-52.81c0.57-12.96,1.28-25.94,1.2-38.9
		c-0.06-9.06-6.14-13.08-15.2-11.93c-13.31,1.69-31.35,17.7-29.61,36.24c1.88,19.93,4.7,39.69,10.65,58.86
		c0.96,3.09,1.18,6.39,5.88,7.59c2.92,0.75,2.6,5.5,0.09,7.58c-3.39,2.82-7.25,5.49-11.36,6.95c-10.03,3.56-20.29,6.52-30.55,9.38
		c-1.53,0.43-4.71-0.55-5.14-1.65c-0.74-1.93-0.85-5.5,0.36-6.55c7.47-6.46,7.8-14.21,5.16-22.76c-0.89-2.86-1.85-5.71-2.96-8.49
		c-1.44-3.6-2.11-6.88-1.02-11.02c1.23-4.66,0-9.74-4.28-13.04c-5.44-4.19-7.15-8.78-3.03-14.96c0.66-1,0.06-3.59-0.85-4.74
		c-2.65-3.34-3.04-6.33-0.56-9.97c2.67-3.9,4.78-7.91,1.41-12.84c-0.96-1.41,0.03-4.17,0.16-6.3c0.58-9.33-2.41-12.78-11.75-13.55
		c-0.99-0.08-2.32,0.2-2.91-0.33c-1.13-1.01-2.35-2.41-2.56-3.8c-0.15-0.96,1.15-2.92,2.11-3.15c15.15-3.67,27.98-12.35,41.72-19.05
		c5.75-2.8,10.43,0.2,10.4,6.51C947.95,123.54,947.98,130.61,947.98,138.38z"/>
	<path class="st0" d="M1534.03,169.06c0-7.83-0.11-15.66,0.05-23.49c0.07-3.37-1.03-5.39-4.47-6.01c-1.12-0.2-2.57-0.52-3.16-1.32
		c-0.97-1.3-2.08-3.19-1.77-4.52c0.26-1.11,2.44-2.47,3.81-2.52c11.64-0.37,23.28-0.42,34.93-0.66c5.6-0.11,9.18,2.73,9.38,9.22
		c0.33,10.14-0.15,20.3-0.28,30.45c-0.22,16.27-1.17,32.58-0.38,48.8c0.49,10.04,6.07,15.05,13.67,16.07
		c8.59,1.15,17.97-3.42,20.99-11.84c2.3-6.42,3.56-13.57,3.56-20.39c0-20.63-0.89-41.25-1.33-61.88c-0.15-7.21,1.61-9.18,8.92-9.56
		c6.31-0.33,12.67,0.13,18.98-0.2c6.95-0.36,13.88-1.12,20.8-1.91c2.32-0.26,4.43-0.76,4.99,2.32c0.48,2.62,0.53,5.1-2.83,5.9
		c-0.16,0.04-0.32,0.13-0.48,0.14c-9.52,0.19-10.61,6.48-11.65,14.27c-2.72,20.43-5.5,40.93-10,61.02
		c-3.12,13.93-10.68,26.08-22.86,34.75c-19.05,13.56-49.92,11.25-65.31-5.45c-8.6-9.33-11.85-21.23-13.37-33.36
		c-1.65-13.17-2.11-26.49-3.09-39.75C1533.43,169.1,1533.73,169.08,1534.03,169.06z"/>
	<path class="st0" d="M1131.65,131.57c6.48-0.32,12.96-0.61,19.43-0.97c5.9-0.33,9.54,2.59,9.74,9.33c0.3,10.14-0.2,20.3-0.33,30.45
		c-0.21,16.27-1.13,32.58-0.33,48.8c0.49,9.96,6.16,14.98,13.8,15.93c8.45,1.04,17.79-3.43,20.68-11.57
		c2.34-6.58,2.96-13.84,3.76-20.87c0.47-4.08-0.27-8.3-0.37-12.45c-0.37-16.31-0.75-32.61-1.01-48.92
		c-0.13-7.69,1.71-9.65,9.59-9.95c6.65-0.25,13.34,0.18,19.98-0.15c6.45-0.32,12.86-1.39,19.31-1.77c1.54-0.09,4.03,0.8,4.56,1.95
		c1.04,2.24,1.1,5.01-2.26,6.03c-0.48,0.15-0.96,0.29-1.44,0.43c-9.86,2.91-9.39,2.98-10.87,13.26
		c-2.95,20.57-5.6,41.25-10.05,61.52c-3.07,13.94-10.57,26.13-22.68,34.87c-19.13,13.8-50.2,11.47-65.71-5.35
		c-7.25-7.87-10.11-17.85-12.39-28c-3.47-15.41-3.22-31.08-3.09-46.73c0.06-7.16-0.09-14.33,0.1-21.49c0.1-3.53-0.92-5.75-4.63-6.41
		c-1.27-0.23-2.85-0.7-3.55-1.62c-0.87-1.15-1.59-3.07-1.22-4.31c0.32-1.08,2.21-2.33,3.47-2.39c5.15-0.27,10.32-0.11,15.48-0.11
		C1131.64,131.23,1131.64,131.4,1131.65,131.57z"/>
	<path class="st0" d="M621.03,168.93c0-7.5-0.17-15,0.07-22.49c0.13-3.92-0.95-6.28-5.07-7.15c-1.62-0.34-3.48-1.53-4.38-2.89
		c-1.54-2.32,0.58-5.31,3.46-5.35c11.98-0.17,23.95-0.38,35.93-0.49c5.28-0.05,8.61,3,8.78,9.32c0.28,10.14-0.19,20.3-0.32,30.45
		c-0.21,16.27-1.14,32.58-0.34,48.8c0.49,9.98,6.15,15,13.77,15.96c8.44,1.06,17.81-3.41,20.7-11.53
		c2.34-6.58,2.99-13.84,3.78-20.87c0.48-4.25-0.27-8.63-0.37-12.95c-0.37-16.31-0.74-32.61-1.01-48.92
		c-0.12-7.09,1.69-9.11,9.06-9.44c7.15-0.32,14.33,0.13,21.48-0.19c5.95-0.27,11.89-1.07,17.81-1.82c2.41-0.31,4.74-1.11,5.4,2.35
		c0.57,3.01,0.04,5.75-3.48,5.88c-9.7,0.35-10.47,6.79-11.51,14.43c-2.76,20.26-5.48,40.6-9.91,60.53
		c-3.14,14.12-10.72,26.43-23.07,35.18c-19.07,13.51-49.92,11.07-65.31-5.59c-7.26-7.86-10.81-17.75-12.25-28.01
		c-2.1-14.95-3.02-30.05-4.45-45.09C620.2,169.01,620.61,168.97,621.03,168.93z"/>
	<path class="st0" d="M1301.33,253.26c-8.55-0.2-19.79-4.16-28.76-13.85c-9.56-10.34-10.46-28.97-1.24-39.61
		c2.12-2.45,5.63-4.02,8.81-5.12c3.16-1.09,6.42-0.14,8.01,3.31c1.56,3.38,0.87,6.53-1.79,9.15c-0.82,0.81-1.84,1.43-2.81,2.07
		c-9.5,6.18-10.27,19.23-1.2,26.46c9.82,7.83,21.09,10.45,33.38,7.39c8.42-2.1,10.19-7.46,5.11-14.38
		c-9.75-13.3-19.71-26.46-29.1-40.01c-5.13-7.39-8.89-15.52-9.82-24.82c-2.7-27.05,20.08-44.11,40.68-46.36
		c15.42-1.69,27.75,4.25,36.12,17.51c5.91,9.37,5.06,27.48-7.21,35.25c-8.31,5.27-20.95,3.34-27.6-4.75
		c-6.88-8.38-6.78-19.75,0.25-26.88c5.29-5.36,12.3-5.74,16.78-0.9c3.79,4.09,3.81,8.48-0.31,12.29c-2.43,2.25-5.4,3.9-7.89,6.09
		c-3.33,2.93-2.91,5.64,0.94,7.9c7.42,4.34,17.87,0.34,20.51-7.84c3.51-10.91-2.09-22.45-13.02-26.97
		c-8.23-3.4-15.73-2.33-22.2,3.82c-7.12,6.76-10.55,19.64-6,27.59c5.67,9.91,12.77,19,19.3,28.41c3.99,5.74,8.5,11.16,12.02,17.17
		c6.39,10.9,4.51,23.53-4.24,32.64C1330.66,248.56,1319.52,253.25,1301.33,253.26z"/>
	<path class="st0" d="M819.11,139.26c12.49,0.01,20.84,6.4,24.29,20.21c4.93,19.7,9.1,39.59,13.53,59.41
		c0.87,3.9,1.54,7.84,2.09,11.8c0.45,3.24,2.14,4.76,5.35,4.56c3.14-0.2,6.3-0.82,9.41-0.64c1.71,0.1,3.35,1.47,5.02,2.27
		c-1.02,2.02-1.89,5.71-3.07,5.8c-16.94,1.42-30.93,12.07-47.4,14.82c-3.32,0.55-6,0.87-8.54-2.11c-0.92-1.07-3.51-1.02-5.33-0.97
		c-8.76,0.24-17.57,1.45-26.24,0.79c-9.51-0.73-18.24-4.72-21.13-14.84c-3.03-10.59-2.1-21.29,6.67-29.07
		c5.75-5.1,12.56-9.26,19.46-12.73c6.8-3.42,14.26-5.55,21.51-8.02c3.07-1.05,3.99-2.51,3.55-5.88c-0.71-5.4-0.85-10.9-0.74-16.36
		c0.1-5.37-3.9-12.06-9.49-14.78c-5.08-2.47-9.58-0.43-12.59,3.18c-3.86,4.62-6.86,10.03-9.69,15.39c-0.83,1.57-0.24,4.29,0.53,6.14
		c0.5,1.22,2.49,2.53,3.79,2.51c1.3-0.02,3.2-1.38,3.72-2.63c0.93-2.23,0.44-5.17,1.64-7.15c1.17-1.94,3.71-3.05,5.64-4.52
		c1.29,1.84,3.62,3.64,3.68,5.52c0.2,6.24-3.27,10.7-8.74,13.43c-4.25,2.11-8.71,2.67-12.72-0.54c-4.96-3.96-6.08-9.29-4.81-15.3
		c1.51-7.19,5.84-12.53,11.05-17.41C797.68,144.53,809.54,139.26,819.11,139.26z M805.34,247.71c0.02-0.15,0.03-0.29,0.05-0.44
		c2.17,0,4.33,0.04,6.5-0.01c7.74-0.18,11.47-3.38,11.03-10.93c-0.66-11.1-2.05-22.17-3.42-33.21c-0.15-1.21-2.52-3.34-3.31-3.11
		c-12.54,3.61-25.18,7.52-33.48,18.5c-7.12,9.42-6.62,24.21,9.81,27.6C796.73,246.97,801.07,247.19,805.34,247.71z"/>
	<path class="st0" d="M352.94,230.94c-0.64-11.22,4.83-19.75,13.86-24.87c10.48-5.95,21.88-10.39,33.15-14.78
		c4.7-1.83,6.06-3.72,5.01-8.69c-0.95-4.46-0.71-9.25-0.5-13.87c0.26-5.71-3.71-12.48-9.51-15.22c-5.33-2.52-9.88-0.17-12.94,3.6
		c-3.8,4.67-6.91,10.06-9.4,15.56c-1.7,3.75,0.98,8.26,4.05,8.22c4.19-0.05,4.83-3.37,5.29-6.62c0.18-1.32-0.18-3.12,0.56-3.86
		c1.59-1.6,3.68-3.5,5.67-3.62c1.15-0.07,3.48,3.02,3.58,4.79c0.33,6.24-2.97,10.79-8.39,13.65c-4.19,2.21-8.65,2.93-12.76-0.1
		c-4.92-3.64-6.36-8.78-5.32-14.65c1.31-7.4,5.4-13.17,10.97-17.98c8.89-7.69,18.65-13.42,30.93-13.22
		c9.18,0.15,16.73,3.94,19.85,12.53c4.07,11.2,7.04,22.86,9.77,34.49c3.46,14.74,6.27,29.64,9.2,44.5c0.64,3.24,2.28,4.68,5.44,4.47
		c3.14-0.21,6.3-0.85,9.41-0.66c1.69,0.1,3.3,1.54,4.95,2.37c-1.05,2-1.97,5.64-3.17,5.74c-16.79,1.34-30.61,11.99-46.92,14.71
		c-3.45,0.57-6.34,1.17-9.01-2.08c-0.87-1.06-3.52-0.92-5.35-0.89c-9.25,0.18-18.6,1.5-27.72,0.55
		C359.52,253.52,352.93,245.07,352.94,230.94z M392.44,247.71c0.02-0.14,0.03-0.29,0.05-0.43c2,0,4,0.03,6-0.01
		c8.32-0.16,11.93-3.3,11.44-11.54c-0.65-10.94-2.07-21.83-3.45-32.71c-0.15-1.18-2.56-3.24-3.38-3.01
		c-12.38,3.58-24.82,7.48-33.15,18.15c-7.26,9.3-7.15,24.52,9.67,27.95C383.82,246.98,388.16,247.2,392.44,247.71z"/>
	<path class="st0" d="M1463.66,137.15c9.95-0.67,20.11,4.11,26.64,16c2.97,5.39,3.02,5.88-2.38,8.65
		c-14.68,7.52-29.29,15.16-44.08,22.46c-4.13,2.04-5.11,4.24-3.59,8.6c3.9,11.22,7.73,22.36,16.66,30.88
		c5.6,5.34,12.22,7.81,19.64,6.24c3.45-0.73,6.52-3.53,9.59-5.64c1.18-0.81,1.65-2.69,2.84-3.41c2.05-1.23,4.42-1.94,6.66-2.87
		c0.55,2.59,2.27,5.71,1.38,7.64c-1.51,3.28-4.22,6.44-7.2,8.56c-17.94,12.72-48.31,10.96-65.86-2.4
		c-22.22-16.91-27.52-53.14-6.74-76.02C1428.67,143.22,1443.39,137.33,1463.66,137.15z M1436,166.46c-0.03,8.39,0.56,8.72,8.38,5.11
		c7.1-3.28,14.32-6.31,21.36-9.71c4.9-2.37,6.29-6.6,4.34-11.7c-1.9-4.94-6.17-6.31-10.77-6.77
		C1444.84,141.91,1436.06,150.69,1436,166.46z"/>
	<path class="st0" d="M160.21,135.28c10.67,2.06,22.82,6.49,32.97,14.99c5.97,5,6.75,13.18,3.52,20.64
		c-4.28,9.89-12.06,16.57-20.47,22.69c-11.87,8.63-24.81,14.86-39.44,17.19c-0.82,0.13-1.67,0.44-2.46,0.34
		c-2.05-0.27-4.08-0.72-6.11-1.1c0.96-1.79,1.61-3.86,2.92-5.34c6.34-7.12,13-14.11,13.63-24.3c0.38-6.13-0.15-12.31,0.06-18.46
		c0.2-5.93,0.26-11.96,1.37-17.75C147.52,137.17,150.7,135.2,160.21,135.28z"/>
	<path class="st0" d="M269.56,154.86c3.69,11.31,4.02,21.88-2.7,31.18c-8.08,11.17-17.03,21.76-28.93,29.27
		c-1.26,0.79-2.58,1.57-3.97,2.05c-3.77,1.3-6.59-0.15-6.71-4.13c-0.24-8.56-2.99-16.16-6.8-23.71c-3.41-6.76-1.04-10.95,6.36-12.96
		c4.48-1.22,9.44-1.5,13.42-3.64c8.84-4.74,17.21-10.38,25.76-15.67C266.96,156.65,267.88,155.99,269.56,154.86z"/>
	<path class="st0" d="M1789.1,86.29c7.88,0,13.93,5.56,13.83,12.71c-0.1,6.88-6.6,13.06-13.82,13.13
		c-6.75,0.06-13.09-6.72-12.98-13.89C1776.22,91.76,1782.15,86.3,1789.1,86.29z"/>
	<path class="st0" d="M1004.93,86.29c7.89-0.08,14,5.4,14,12.55c0,6.88-6.41,13.11-13.66,13.29c-6.74,0.16-13.13-6.51-13.14-13.73
		C992.12,91.93,998,86.37,1004.93,86.29z"/>
	<path class="st0" d="M400.47,0c7.89-0.08,14,5.4,14,12.55c0,6.88-6.41,13.11-13.66,13.29c-6.74,0.16-13.13-6.51-13.14-13.73
		C387.65,5.64,393.54,0.07,400.47,0z"/>
	<path class="st0" d="M150.34,254.91c13.79-5.04,26.98-12.4,42.35-11.55c4.08,0.23,8.18,1.32,12.11,2.53
		c1.8,0.55,3.22,2.35,4.81,3.58c-0.19,0.41-0.37,0.82-0.56,1.23c-1.04,0-2.16,0.26-3.1-0.04c-10.47-3.33-19.24,0.32-27.44,6.49
		c-0.27,0.2-0.56,0.38-0.79,0.61c-5.13,5.27-8.74,7.29-15.81,1.62c-2.72-2.19-8.42-1.68-11.93-2.89
		C150.1,255.97,150.22,255.44,150.34,254.91z"/>
	<path class="st0" d="M1394.99,203.05c-0.07,5.74-2.6,8.27-8.2,8.19c-5.45-0.07-7.82-2.69-7.8-8.6c0.02-6.03,2.31-8.47,7.87-8.4
		C1392.67,194.33,1395.07,196.93,1394.99,203.05z"/>
	<path class="st0" d="M382.07,65.74c-0.07,5.74-2.6,8.27-8.2,8.19c-5.45-0.07-7.82-2.69-7.8-8.6c0.02-6.03,2.31-8.47,7.87-8.4
		C379.75,57.02,382.15,59.62,382.07,65.74z"/>
	<path class="st0" d="M1418.01,254.77c0.11-5.47,2.6-8.45,7.04-8.41c4.91,0.04,9.07,4.42,8.92,9.38c-0.15,4.93-2.83,7.6-7.42,7.39
		C1421.32,262.88,1417.92,259.56,1418.01,254.77z"/>
	<path class="st0" d="M1393.01,233.59c0.04-5.69,2.29-8.38,6.91-8.27c5,0.12,8,3.39,8.05,8.75c0.05,5.42-2.63,8.23-7.72,8.12
		C1395.29,242.09,1392.97,239.33,1393.01,233.59z"/>
	<path class="st0" d="M1396.99,166.02c0.09,5.22-2.36,8.02-7.13,8.17c-4.43,0.14-6.73-2.25-6.88-7.13
		c-0.16-5.62,2.24-8.59,7.08-8.74C1394.53,158.18,1396.9,160.82,1396.99,166.02z"/>
	<path class="st0" d="M1455.96,263.14c0.02-5.27,2.5-7.88,7.44-7.83c4.21,0.04,6.57,2.82,6.53,7.67c-0.05,5.19-2.43,8.07-6.74,8.18
		C1458.46,271.28,1455.95,268.5,1455.96,263.14z"/>
	<path class="st0" d="M1513.01,133.77c0.03,5.05-1.86,7.37-6.03,7.39c-4.37,0.03-7.84-3.27-7.81-7.41c0.03-4.04,2.7-6.47,7.18-6.52
		C1511.27,127.18,1512.98,128.86,1513.01,133.77z"/>
	<path class="st0" d="M1439.14,117.32c2.86,0.17,5.65,1.27,5.51,5.12c-0.13,3.52-1.37,6.69-5.76,6.68c-4.17-0.01-5.9-2.48-5.86-6.42
		C1433.07,118.99,1435.03,117.27,1439.14,117.32z"/>
	<path class="st0" d="M1478.04,121.76c-0.09,3.36-0.66,6.4-4.73,6.27c-3.76-0.12-6.2-2.11-6.24-6.19c-0.04-4.05,2.28-6.18,6.08-6.35
		C1477.53,115.3,1478.03,118.53,1478.04,121.76z"/>
	<path class="st0" d="M1415.91,141.72c-1.94,1.47-3.74,3.86-5.86,4.21c-3.81,0.63-5.04-2.3-5.05-5.76
		c-0.01-3.38,1.49-5.56,4.95-5.59C1413.75,134.54,1415.12,137.01,1415.91,141.72z"/>
	<path class="st0" d="M409.5,46.91c-1.94,1.47-3.74,3.86-5.86,4.21c-3.81,0.63-5.04-2.3-5.05-5.76c-0.01-3.38,1.49-5.56,4.95-5.59
		C407.35,39.74,408.72,42.2,409.5,46.91z"/>
</g>
<path class="st0" d="M2219.56,72.26c-6.48-12.52-18.02-18.75-30.28-23.83c-14.4-5.96-27.71-7.98-43.55-9.58
	c6.6,4.14,13.78,14.36,18.32,19.92c7.86,9.63,8.76,13.75,13.08,25.36c2.77,7.46,1.61,10.4,9.05,7.44
	c7.71-3.07,15.78-5.25,23.43-8.45c3.64-1.52,6.66-4.52,9.96-6.86C2219.56,74.92,2219.56,73.59,2219.56,72.26z"/>
<path class="st0" d="M1891.13,91.26c10.24,1.16,20.54,1.8,30.74,3.23c7.38,1.04,13.63,4.58,19.37,9.63
	c3.85,3.39,8.88,6.22,13.83,7.37c4.16,0.97,9-0.72,13.47-1.55c0.61-0.11,0.86-2.11,1.28-3.24c-1.02-0.16-2.27-0.78-3.01-0.4
	c-8.71,4.51-15.48,0.62-22.37-4.46c-5.03-3.71-10.33-7.68-16.14-9.54c-7.5-2.4-15.61-2.98-23.5-4.01
	c-7.08-0.93-14.32-0.87-21.3-2.24c-8.05-1.57-9.37-5.31-5.53-12.63c3.29-6.27,9.02-9.53,15.48-10.84
	c9.25-1.88,14.26-7.12,17.1-15.98c4.62-14.4,14.93-24.06,28.12-30.96c19.47-10.18,40.59-14.11,62.13-15.23
	c27.54-1.43,54.9,0.54,81.74,7.66c29.07,7.72,53.92,22.12,72.08,46.41c26.6,35.57,33.82,76.14,28.43,119.34
	c-3.05,24.46-14.36,45.31-31.56,62.74c-13.96,14.15-30.71,24.54-48.87,32.36c-5.99,2.58-8.15,6.44-10.21,12.08
	c-3.96,10.88-8.1,21.92-14.04,31.78c-6.54,10.86-16.74,17.89-30.41,16.35c-7.23-0.82-14.35-2.77-21.45-4.51
	c-1.57-0.38-2.83-1.99-4.24-3.03c1.32-1.08,2.48-2.72,3.98-3.15c5.78-1.65,9.12-5.06,11.08-10.91c3.28-9.77,7.16-19.36,11.34-28.78
	c3.89-8.77,9.68-15.74,19.62-18.57c5.24-1.49,10.23-4.01,15.15-6.45c9.4-4.66,15.5-11.92,16.66-22.69
	c0.86-7.94,1.46-15.91,2.57-23.81c1.97-13.97-5.64-21.56-15.98-25.39c-9.46-3.51-9.42-3.62-9.1-13.94c0.04-1.33,0.34-2.66,0.31-3.98
	c-0.2-7.62,2.51-17.18,1.49-24.7c-1.2-8.81-9.08-10.33-18.12-9.27c-13.26,1.56-24.91,7.45-35.9,14.36
	c-9.29,5.84-11.37,14.21-8,24.86c0.44,1.38,0.8,2.79,1.44,4.99c-3.56-0.36-6.47-0.58-9.36-0.95c-16.5-2.11-32.14-6.7-46.88-14.72
	c-15.06-8.2-26.18-20.4-36.46-33.57c-7.35-9.42-15.68-16.8-28.47-17.01c-1.62-0.03-3.29-0.62-4.82-1.23
	c-7.98-3.18-13.69-8.44-15.94-17.78C1882.3,89.83,1886.69,90.76,1891.13,91.26z M2025.96,90.57c-0.27-3.25,1.34-3.92,3.97-4.48
	c1.4-0.3,2.57-1.64,3.84-2.51c-1.08-0.8-2.27-1.5-3.22-2.43c-1.19-1.16-2.16-2.53-3.28-3.77c-0.83-0.92-1.73-1.77-2.6-2.64
	c-0.7,1.14-1.87,2.22-2.01,3.43c-1.08,9.1-3.83,12.16-12.67,13.68c-5.44,0.94-9.06-1.05-11.68-6.07c-0.59-1.12-1.98-1.82-3-2.72
	c-0.49,1.42-1.4,2.86-1.37,4.27c0.05,2.68,0.38,5.42,1.14,7.97c0.27,0.9,2.5,2.14,3.22,1.82c4.33-1.9,7.91-1.03,11.58,1.69
	c0.83,0.61,3.11-0.01,4.3-0.74c2.59-1.6,4.9-3.65,7.33-5.51c0.69,0.65,1.38,1.31,2.07,1.96
	C2024.42,93.21,2026.07,91.82,2025.96,90.57z"/>
<path class="st0" d="M2059.35,135.28c-10.67,2.06-22.82,6.49-32.97,14.99c-5.97,5-6.75,13.18-3.52,20.64
	c4.28,9.89,12.06,16.57,20.47,22.69c11.87,8.63,24.81,14.86,39.44,17.19c0.82,0.13,1.67,0.44,2.46,0.34
	c2.05-0.27,4.08-0.72,6.11-1.1c-0.96-1.79-1.61-3.86-2.92-5.34c-6.34-7.12-13-14.11-13.63-24.3c-0.38-6.13,0.15-12.31-0.06-18.46
	c-0.2-5.93-0.26-11.96-1.37-17.75C2072.05,137.17,2068.86,135.2,2059.35,135.28z"/>
<path class="st0" d="M1950,154.86c-3.69,11.31-4.02,21.88,2.7,31.18c8.08,11.17,17.03,21.76,28.93,29.27
	c1.26,0.79,2.58,1.57,3.97,2.05c3.77,1.3,6.59-0.15,6.71-4.13c0.24-8.56,2.99-16.16,6.8-23.71c3.41-6.76,1.04-10.95-6.36-12.96
	c-4.48-1.22-9.44-1.5-13.42-3.64c-8.84-4.74-17.21-10.38-25.76-15.67C1952.6,156.65,1951.68,155.99,1950,154.86z"/>
<path class="st0" d="M1819.09,0c-7.89-0.08-14,5.4-14,12.55c0,6.88,6.41,13.11,13.66,13.29c6.74,0.16,13.13-6.51,13.14-13.73
	C1831.91,5.64,1826.02,0.07,1819.09,0z"/>
<path class="st0" d="M2069.22,254.91c-13.79-5.04-26.98-12.4-42.35-11.55c-4.08,0.23-8.18,1.32-12.11,2.53
	c-1.8,0.55-3.22,2.35-4.81,3.58c0.19,0.41,0.37,0.82,0.56,1.23c1.04,0,2.16,0.26,3.1-0.04c10.47-3.33,19.24,0.32,27.44,6.49
	c0.27,0.2,0.56,0.38,0.79,0.61c5.13,5.27,8.74,7.29,15.81,1.62c2.72-2.19,8.42-1.68,11.93-2.89
	C2069.46,255.97,2069.34,255.44,2069.22,254.91z"/>
<path class="st0" d="M1837.49,65.74c0.07,5.74,2.6,8.27,8.2,8.19c5.45-0.07,7.82-2.69,7.8-8.6c-0.02-6.03-2.31-8.47-7.87-8.4
	C1839.81,57.02,1837.41,59.62,1837.49,65.74z"/>
<path class="st0" d="M1810.06,46.91c1.94,1.47,3.74,3.86,5.86,4.21c3.81,0.63,5.04-2.3,5.05-5.76c0.01-3.38-1.49-5.56-4.95-5.59
	C1812.21,39.74,1810.85,42.2,1810.06,46.91z"/>
</svg>
