<?xml version="1.0" encoding="utf-8"?>
<!-- Generator: Adobe Illustrator 23.0.6, SVG Export Plug-In . SVG Version: 6.00 Build 0)  -->
<svg version="1.1" id="レイヤー_1" xmlns="http://www.w3.org/2000/svg" xmlns:xlink="http://www.w3.org/1999/xlink" x="0px"
	 y="0px" viewBox="0 0 629.2 100.8" style="enable-background:new 0 0 629.2 100.8;" xml:space="preserve">
<style type="text/css">
	.st0{fill:#FFFFFF;}
</style>
<g>
	<path class="st0" d="M68.6,100.8c-0.7-3.3-0.1-4.3,3.1-4.9c0.9-0.2,1.9-0.3,2.8-0.5c1.9-0.5,3-2.3,2.4-4.2
		c-0.6-2.1-0.5-3.9,1.4-5.6c1.8-1.6,2.4-7.7,1.1-9.6c-1.1-1.6-0.9-3,0.1-4.4c0.7-1,0.6-1.5-0.1-2.5c-0.5-0.7-0.7-1.9-0.5-2.8
		c0.5-2,1.4-3.7,0.7-6c-0.3-1,0.5-2.5,0.8-3.8c-2.5,0.3-4.9,0.8-7.3,0.8C61.8,57.5,54,50.6,52.6,39.3c-1.3-10.2,4.7-21.1,13.9-25.5
		c3.6-1.7,7.6-1.9,11.3-1.3c6.1,1,12,0.6,17.9-1.4c0.7-0.2,1.5-0.4,2.2-0.5c1.6-0.4,2.2,0.3,2,1.8c-0.4,3.5-0.9,7-1.3,10.4
		c-0.9,8.8-2,17.6-2.7,26.4C95,60.6,94.4,72,93.8,83.4c-0.2,4.3-0.3,8.7-0.4,13c0,1.6-0.3,2.4-2.3,2.1c-7.4-1.2-14.6,0.2-21.7,2.3
		C69.2,100.8,68.9,100.8,68.6,100.8z M63,36.2c-0.1,2.6,1.9,6.8,6.3,9.3c2.8,1.6,6.2,2.3,9.3,3.3c1.5,0.5,2-0.2,1.9-1.7
		c0-1.9,0-3.7,0.2-5.6c0.9-7.6,1.9-15.1,3-22.7c0.2-1.6-0.4-2.1-1.8-1.9c-2.6,0.4-5.2,0.7-7.7,1.5C67,20.7,62.9,26.4,63,36.2z"/>
	<path class="st0" d="M569.6,21.5c2.4-1.4,4.2-2.9,6.2-3.7c2.3-0.9,4.7-1.5,7.1-1.6c4-0.2,6.5,1.6,7.9,5.3c0.7,1.7,1.1,3.5,1.1,4.5
		c2.1-1.7,4.2-3.3,6.3-5c4.3-3.6,9-5.4,14.7-4.1c7.3,1.6,10.4,9,9.2,14.3c-1.5,6.5-3.9,12.9-6,19.3c-1.4,4.4-3.1,8.7-2.8,13.4
		c0.1,2,0.5,3.7,2.4,4.7c2.1,1,4.3,1.1,6.2-0.4c2.8-2.1,4-5,4.1-8.4c0-0.5,0-1.1-0.3-1.4c-0.8-0.8-1.7-1.9-2.6-2.1
		c-1.3-0.2-2.2,0.8-2.4,2.3c-0.1,1.2-0.7,2.5-2.1,2.2c-1.4-0.3-1.6-1.7-1.3-3c0.6-2.5,2.9-4.5,5.5-4.5c2.6,0,5.5,2.3,6.1,5
		c1.2,4.9-1.6,11.2-6,13.7c-3.4,1.9-6.8,2.3-10.1,0c-3.3-2.3-4.6-5.8-3.8-9.6c1-4.7,2.7-9.4,4.1-14c1.7-5.4,3.6-10.7,5-16.1
		c0.9-3.4,0.1-6.8-3.1-9c-3.6-2.5-8.4-1.7-10.6,2.1c-1.5,2.6-2.8,5.5-3.3,8.4c-1.2,7.2-1.9,14.6-2.6,21.9c-0.2,2.4,0.2,4.8,0.6,7.1
		c0.4,2.8-0.5,4-3.3,3.6c-2.6-0.3-5.2-0.7-7.8-1c-1.4-0.2-2.1-0.8-2-2.3c0.4-7.3,0.8-14.5,1.1-21.8c0.2-5.4,0.5-10.7,0.5-16.1
		c0-3.8-2.5-5.5-6.2-4.9c-7.2,1.2-12.7,7.8-12.2,15.1c0.6,8.2,1.9,16.4,4.4,24.3c0.4,1.2,0.5,2.5,2.4,3c1.2,0.3,1.1,2.2,0.1,3.1
		c-1.3,1.1-2.7,2.2-4.3,2.7c-4.3,1.5-8.8,2.8-13.2,4.1c-0.6,0.2-1.8-0.3-1.9-0.7c-0.3-0.8-0.4-2.3,0.1-2.7c3.2-2.7,3.3-6,2.1-9.6
		c-0.4-1.3-1.1-2.6-1.3-3.9c-0.3-1.2-0.3-2.5-0.2-3.7c0.1-2.1,0-4.2-1.8-5.6c-2.2-1.7-3-3.6-1.3-6.2c0.3-0.4,0.1-1.5-0.3-2
		c-1.1-1.4-1.3-2.6-0.3-4.1c1.1-1.6,2-3.2,0.6-5.3c-0.5-0.7,0-2,0.1-3c0.1-3.5-1.1-4.9-4.6-5.2c-0.5,0-1.1,0.1-1.4-0.1
		c-0.5-0.4-1-1-1.1-1.5c-0.1-0.4,0.5-1.2,0.8-1.3c6.3-1.5,11.7-5.2,17.4-8c2.2-1.1,4.1,0.2,4.1,2.7
		C569.6,15.4,569.6,18.3,569.6,21.5z"/>
	<path class="st0" d="M245.8,21.5c2.4-1.5,4.2-2.9,6.3-3.7c2.3-0.9,4.9-1.5,7.3-1.6c3.6-0.2,6.3,1.6,7.6,5.1
		c0.6,1.7,1.2,3.5,1.8,5.6c0.5-0.5,0.9-1,1.4-1.4c2.6-2.9,5.2-5.9,8.9-7.5c5.2-2.3,10.3-2.3,14.8,1.3c4.2,3.4,5.6,8.3,4.2,13.4
		c-1.6,6-3.8,11.9-5.8,17.9c-1.5,4.4-3.1,8.7-2.8,13.4c0.1,2,0.5,3.7,2.4,4.7c2.1,1,4.3,1.1,6.2-0.4c2.8-2.1,4-5,4.1-8.4
		c0-0.4-0.1-0.8-0.2-1.2c-0.4-1.4-1.2-2.4-2.7-2.3c-1.4,0.1-2.2,0.9-2.4,2.4c-0.1,1.2-0.7,2.5-2.2,2.1c-1.4-0.4-1.6-1.7-1.3-3.1
		c0.6-2.5,3-4.5,5.5-4.5c2.6,0,5.5,2.3,6.1,5c1.1,4.9-1.6,11.2-6,13.7c-3.4,1.9-6.8,2.3-10.1,0c-3.3-2.3-4.6-5.8-3.8-9.6
		c1.1-4.7,2.7-9.4,4.1-14c1.7-5.4,3.7-10.7,4.9-16.1c1.3-5.9-2.5-10.6-7.8-10.3c-3.7,0.2-6.1,2.4-7.2,5.6c-1.3,4.2-2.2,8.5-2.9,12.8
		c-0.7,4.3-1.2,8.7-1.4,13.1c-0.2,3.1-0.1,6.2,0.3,9.2c0.4,3.1-0.4,4.2-3.5,3.8c-2.5-0.3-5-0.6-7.6-0.9c-1.4-0.2-2.1-0.8-2-2.3
		c0.4-7.3,0.8-14.5,1.1-21.8c0.2-5.4,0.5-10.7,0.5-16.1c0-3.7-2.5-5.4-6.3-4.9c-5.5,0.7-12.9,7.3-12.2,15c0.8,8.2,1.9,16.4,4.4,24.3
		c0.4,1.3,0.5,2.6,2.4,3.1c1.2,0.3,1.1,2.3,0,3.1c-1.4,1.2-3,2.3-4.7,2.9c-4.1,1.5-8.4,2.7-12.6,3.9c-0.6,0.2-1.9-0.2-2.1-0.7
		c-0.3-0.8-0.4-2.3,0.1-2.7c3.1-2.7,3.2-5.9,2.1-9.4c-0.4-1.2-0.8-2.4-1.2-3.5c-0.6-1.5-0.9-2.8-0.4-4.6c0.5-1.9,0-4-1.8-5.4
		c-2.2-1.7-3-3.6-1.3-6.2c0.3-0.4,0-1.5-0.4-2c-1.1-1.4-1.3-2.6-0.2-4.1c1.1-1.6,2-3.3,0.6-5.3c-0.4-0.6,0-1.7,0.1-2.6
		c0.2-3.9-1-5.3-4.9-5.6c-0.4,0-1,0.1-1.2-0.1c-0.5-0.4-1-1-1.1-1.6c-0.1-0.4,0.5-1.2,0.9-1.3c6.3-1.5,11.6-5.1,17.2-7.9
		c2.4-1.2,4.3,0.1,4.3,2.7C245.8,15.4,245.8,18.3,245.8,21.5z"/>
	<path class="st0" d="M487.8,34.2c0-3.2,0-6.5,0-9.7c0-1.4-0.4-2.2-1.8-2.5c-0.5-0.1-1.1-0.2-1.3-0.5c-0.4-0.5-0.9-1.3-0.7-1.9
		c0.1-0.5,1-1,1.6-1c4.8-0.2,9.6-0.2,14.4-0.3c2.3,0,3.8,1.1,3.9,3.8c0.1,4.2-0.1,8.4-0.1,12.6c-0.1,6.7-0.5,13.5-0.2,20.2
		c0.2,4.1,2.5,6.2,5.6,6.6c3.5,0.5,7.4-1.4,8.7-4.9c0.9-2.7,1.5-5.6,1.5-8.4c0-8.5-0.4-17-0.5-25.6c-0.1-3,0.7-3.8,3.7-3.9
		c2.6-0.1,5.2,0.1,7.8-0.1c2.9-0.1,5.7-0.5,8.6-0.8c1-0.1,1.8-0.3,2.1,1c0.2,1.1,0.2,2.1-1.2,2.4c-0.1,0-0.1,0.1-0.2,0.1
		c-3.9,0.1-4.4,2.7-4.8,5.9c-1.1,8.4-2.3,16.9-4.1,25.2c-1.3,5.8-4.4,10.8-9.4,14.4c-7.9,5.6-20.6,4.6-27-2.3
		c-3.6-3.9-4.9-8.8-5.5-13.8c-0.7-5.4-0.9-10.9-1.3-16.4C487.6,34.2,487.7,34.2,487.8,34.2z"/>
	<path class="st0" d="M321.6,18.7c2.7-0.1,5.4-0.3,8-0.4c2.4-0.1,3.9,1.1,4,3.9c0.1,4.2-0.1,8.4-0.1,12.6
		c-0.1,6.7-0.5,13.5-0.1,20.2c0.2,4.1,2.5,6.2,5.7,6.6c3.5,0.4,7.3-1.4,8.5-4.8c1-2.7,1.2-5.7,1.6-8.6c0.2-1.7-0.1-3.4-0.2-5.1
		c-0.2-6.7-0.3-13.5-0.4-20.2c-0.1-3.2,0.7-4,4-4.1c2.7-0.1,5.5,0.1,8.3-0.1c2.7-0.1,5.3-0.6,8-0.7c0.6,0,1.7,0.3,1.9,0.8
		c0.4,0.9,0.5,2.1-0.9,2.5c-0.2,0.1-0.4,0.1-0.6,0.2c-4.1,1.2-3.9,1.2-4.5,5.5c-1.2,8.5-2.3,17-4.2,25.4c-1.3,5.8-4.4,10.8-9.4,14.4
		c-7.9,5.7-20.7,4.7-27.1-2.2c-3-3.3-4.2-7.4-5.1-11.6c-1.4-6.4-1.3-12.8-1.3-19.3c0-3,0-5.9,0-8.9c0-1.5-0.4-2.4-1.9-2.6
		c-0.5-0.1-1.2-0.3-1.5-0.7c-0.4-0.5-0.7-1.3-0.5-1.8c0.1-0.4,0.9-1,1.4-1c2.1-0.1,4.3,0,6.4,0C321.6,18.6,321.6,18.6,321.6,18.7z"
		/>
	<path class="st0" d="M110.7,34.1c0-3.1-0.1-6.2,0-9.3c0.1-1.6-0.4-2.6-2.1-3c-0.7-0.1-1.4-0.6-1.8-1.2c-0.6-1,0.2-2.2,1.4-2.2
		c4.9-0.1,9.9-0.2,14.8-0.2c2.2,0,3.6,1.2,3.6,3.8c0.1,4.2-0.1,8.4-0.1,12.6c-0.1,6.7-0.5,13.5-0.1,20.2c0.2,4.1,2.5,6.2,5.7,6.6
		c3.5,0.4,7.4-1.4,8.5-4.8c1-2.7,1.2-5.7,1.6-8.6c0.2-1.8-0.1-3.6-0.2-5.3c-0.2-6.7-0.3-13.5-0.4-20.2c0-2.9,0.7-3.8,3.7-3.9
		c3-0.1,5.9,0.1,8.9-0.1c2.5-0.1,4.9-0.4,7.4-0.8c1-0.1,2-0.5,2.2,1c0.2,1.2,0,2.4-1.4,2.4c-4,0.1-4.3,2.8-4.8,6
		c-1.1,8.4-2.3,16.8-4.1,25c-1.3,5.8-4.4,10.9-9.5,14.5c-7.9,5.6-20.6,4.6-27-2.3c-3-3.2-4.5-7.3-5.1-11.6
		c-0.9-6.2-1.2-12.4-1.8-18.6C110.4,34.2,110.6,34.1,110.7,34.1z"/>
	<path class="st0" d="M391.7,69c-3.5-0.1-8.2-1.7-11.9-5.7c-3.9-4.3-4.3-12-0.5-16.4c0.9-1,2.3-1.7,3.6-2.1c1.3-0.5,2.7-0.1,3.3,1.4
		c0.6,1.4,0.4,2.7-0.7,3.8c-0.3,0.3-0.8,0.6-1.2,0.9c-3.9,2.6-4.2,7.9-0.5,10.9c4.1,3.2,8.7,4.3,13.8,3.1c3.5-0.9,4.2-3.1,2.1-5.9
		c-4-5.5-8.1-10.9-12-16.5c-2.1-3.1-3.7-6.4-4.1-10.3c-1.1-11.2,8.3-18.2,16.8-19.1c6.4-0.7,11.5,1.8,14.9,7.2
		c2.4,3.9,2.1,11.3-3,14.6c-3.4,2.2-8.7,1.4-11.4-2c-2.8-3.5-2.8-8.2,0.1-11.1c2.2-2.2,5.1-2.4,6.9-0.4c1.6,1.7,1.6,3.5-0.1,5.1
		c-1,0.9-2.2,1.6-3.3,2.5c-1.4,1.2-1.2,2.3,0.4,3.3c3.1,1.8,7.4,0.1,8.5-3.2c1.4-4.5-0.9-9.3-5.4-11.1c-3.4-1.4-6.5-1-9.2,1.6
		c-2.9,2.8-4.4,8.1-2.5,11.4c2.3,4.1,5.3,7.8,8,11.7c1.6,2.4,3.5,4.6,5,7.1c2.6,4.5,1.9,9.7-1.8,13.5C403.8,67,399.2,69,391.7,69z"
		/>
	<path class="st0" d="M192.6,21.9c5.2,0,8.6,2.6,10,8.3c2,8.1,3.8,16.4,5.6,24.5c0.4,1.6,0.6,3.2,0.9,4.9c0.2,1.3,0.9,2,2.2,1.9
		c1.3-0.1,2.6-0.3,3.9-0.3c0.7,0,1.4,0.6,2.1,0.9c-0.4,0.8-0.8,2.4-1.3,2.4c-7,0.6-12.8,5-19.6,6.1c-1.4,0.2-2.5,0.4-3.5-0.9
		c-0.4-0.4-1.4-0.4-2.2-0.4c-3.6,0.1-7.3,0.6-10.8,0.3c-3.9-0.3-7.5-1.9-8.7-6.1c-1.3-4.4-0.9-8.8,2.8-12c2.4-2.1,5.2-3.8,8-5.3
		c2.8-1.4,5.9-2.3,8.9-3.3c1.3-0.4,1.6-1,1.5-2.4c-0.3-2.2-0.4-4.5-0.3-6.8c0-2.2-1.6-5-3.9-6.1c-2.1-1-4-0.2-5.2,1.3
		c-1.6,1.9-2.8,4.1-4,6.4c-0.3,0.6-0.1,1.8,0.2,2.5c0.2,0.5,1,1,1.6,1c0.5,0,1.3-0.6,1.5-1.1c0.4-0.9,0.2-2.1,0.7-3
		c0.5-0.8,1.5-1.3,2.3-1.9c0.5,0.8,1.5,1.5,1.5,2.3c0.1,2.6-1.4,4.4-3.6,5.5c-1.8,0.9-3.6,1.1-5.3-0.2c-2-1.6-2.5-3.8-2-6.3
		c0.6-3,2.4-5.2,4.6-7.2C183.7,24.1,188.6,21.9,192.6,21.9z M186.9,66.7c0-0.1,0-0.1,0-0.2c0.9,0,1.8,0,2.7,0
		c3.2-0.1,4.7-1.4,4.6-4.5c-0.3-4.6-0.8-9.2-1.4-13.7c-0.1-0.5-1-1.4-1.4-1.3c-5.2,1.5-10.4,3.1-13.8,7.6c-2.9,3.9-2.7,10,4.1,11.4
		C183.3,66.4,185.1,66.5,186.9,66.7z"/>
	<path class="st0" d="M0,59.7c-0.3-4.6,2-8.2,5.7-10.3c4.3-2.5,9-4.3,13.7-6.1c1.9-0.8,2.5-1.5,2.1-3.6c-0.4-1.8-0.3-3.8-0.2-5.7
		c0.1-2.4-1.5-5.2-3.9-6.3c-2.2-1-4.1-0.1-5.3,1.5c-1.6,1.9-2.9,4.2-3.9,6.4c-0.7,1.5,0.4,3.4,1.7,3.4c1.7,0,2-1.4,2.2-2.7
		c0.1-0.5-0.1-1.3,0.2-1.6c0.7-0.7,1.5-1.4,2.3-1.5c0.5,0,1.4,1.2,1.5,2c0.1,2.6-1.2,4.5-3.5,5.6c-1.7,0.9-3.6,1.2-5.3,0
		c-2-1.5-2.6-3.6-2.2-6.1c0.5-3.1,2.2-5.4,4.5-7.4c3.7-3.2,7.7-5.5,12.8-5.5c3.8,0.1,6.9,1.6,8.2,5.2c1.7,4.6,2.9,9.4,4,14.2
		c1.4,6.1,2.6,12.2,3.8,18.4c0.3,1.3,0.9,1.9,2.2,1.8c1.3-0.1,2.6-0.4,3.9-0.3c0.7,0,1.4,0.6,2,1c-0.4,0.8-0.8,2.3-1.3,2.4
		c-6.9,0.6-12.6,5-19.4,6.1c-1.4,0.2-2.6,0.5-3.7-0.9c-0.4-0.4-1.5-0.4-2.2-0.4c-3.8,0.1-7.7,0.6-11.4,0.2C2.7,69.1,0,65.6,0,59.7z
		 M16.3,66.7c0-0.1,0-0.1,0-0.2c0.8,0,1.7,0,2.5,0c3.4-0.1,4.9-1.4,4.7-4.8c-0.3-4.5-0.9-9-1.4-13.5c-0.1-0.5-1.1-1.3-1.4-1.2
		c-5.1,1.5-10.3,3.1-13.7,7.5c-3,3.8-3,10.1,4,11.5C12.8,66.4,14.6,66.5,16.3,66.7z"/>
	<path class="st0" d="M458.8,21c4.1-0.3,8.3,1.7,11,6.6c1.2,2.2,1.2,2.4-1,3.6c-6.1,3.1-12.1,6.3-18.2,9.3c-1.7,0.8-2.1,1.8-1.5,3.6
		c1.6,4.6,3.2,9.2,6.9,12.8c2.3,2.2,5,3.2,8.1,2.6c1.4-0.3,2.7-1.5,4-2.3c0.5-0.3,0.7-1.1,1.2-1.4c0.8-0.5,1.8-0.8,2.8-1.2
		c0.2,1.1,0.9,2.4,0.6,3.2c-0.6,1.4-1.7,2.7-3,3.5c-7.4,5.3-20,4.5-27.2-1c-9.2-7-11.4-21.9-2.8-31.4
		C444.3,23.5,450.4,21.1,458.8,21z M447.3,33.1c0,3.5,0.2,3.6,3.5,2.1c2.9-1.4,5.9-2.6,8.8-4c2-1,2.6-2.7,1.8-4.8
		c-0.8-2-2.5-2.6-4.4-2.8C451,23,447.4,26.6,447.3,33.1z"/>
	<path class="st0" d="M593.2,0c3.3,0,5.8,2.3,5.7,5.2c0,2.8-2.7,5.4-5.7,5.4c-2.8,0-5.4-2.8-5.4-5.7C587.9,2.3,590.3,0,593.2,0z"/>
	<path class="st0" d="M269.3,0c3.3,0,5.8,2.2,5.8,5.2c0,2.8-2.6,5.4-5.6,5.5C266.7,10.7,264,8,264,5C264,2.3,266.4,0,269.3,0z"/>
	<path class="st0" d="M430.4,48.2c0,2.4-1.1,3.4-3.4,3.4c-2.3,0-3.2-1.1-3.2-3.6c0-2.5,1-3.5,3.3-3.5
		C429.4,44.6,430.4,45.7,430.4,48.2z"/>
	<path class="st0" d="M439.9,69.6c0-2.3,1.1-3.5,2.9-3.5c2,0,3.7,1.8,3.7,3.9c-0.1,2-1.2,3.1-3.1,3.1
		C441.3,72.9,439.9,71.6,439.9,69.6z"/>
	<path class="st0" d="M429.6,60.8c0-2.4,0.9-3.5,2.9-3.4c2.1,0,3.3,1.4,3.3,3.6c0,2.2-1.1,3.4-3.2,3.4
		C430.5,64.3,429.6,63.2,429.6,60.8z"/>
	<path class="st0" d="M431.2,32.9c0,2.2-1,3.3-2.9,3.4c-1.8,0.1-2.8-0.9-2.8-2.9c-0.1-2.3,0.9-3.5,2.9-3.6
		C430.2,29.7,431.2,30.8,431.2,32.9z"/>
	<path class="st0" d="M455.6,73c0-2.2,1-3.3,3.1-3.2c1.7,0,2.7,1.2,2.7,3.2c0,2.1-1,3.3-2.8,3.4C456.6,76.4,455.6,75.3,455.6,73z"/>
	<path class="st0" d="M479.1,19.6c0,2.1-0.8,3-2.5,3.1c-1.8,0-3.2-1.4-3.2-3.1c0-1.7,1.1-2.7,3-2.7
		C478.4,16.9,479.1,17.6,479.1,19.6z"/>
	<path class="st0" d="M448.6,12.8c1.2,0.1,2.3,0.5,2.3,2.1c-0.1,1.5-0.6,2.8-2.4,2.8c-1.7,0-2.4-1-2.4-2.7
		C446.1,13.5,446.9,12.8,448.6,12.8z"/>
	<path class="st0" d="M464.7,14.7c0,1.4-0.3,2.6-2,2.6c-1.6,0-2.6-0.9-2.6-2.6c0-1.7,0.9-2.6,2.5-2.6
		C464.5,12,464.7,13.3,464.7,14.7z"/>
	<path class="st0" d="M439,22.9c-0.8,0.6-1.5,1.6-2.4,1.7c-1.6,0.3-2.1-0.9-2.1-2.4c0-1.4,0.6-2.3,2-2.3
		C438.2,19.9,438.7,20.9,439,22.9z"/>
</g>
</svg>
