<?xml version="1.0" encoding="utf-8"?>
<!-- Generator: Adobe Illustrator 23.0.6, SVG Export Plug-In . SVG Version: 6.00 Build 0)  -->
<svg version="1.1" id="レイヤー_1" xmlns="http://www.w3.org/2000/svg" xmlns:xlink="http://www.w3.org/1999/xlink" x="0px"
	 y="0px" viewBox="0 0 612.2 562.9" style="enable-background:new 0 0 612.2 562.9;" xml:space="preserve">
<style type="text/css">
	.st0{display:none;}
	.st1{fill:none;stroke:#002A54;stroke-width:11;stroke-linecap:round;stroke-linejoin:round;stroke-miterlimit:10;}
</style>
<g class="st0">
</g>
<g>
	<g>
		<path class="st1" d="M905.3,106.5h-61c-9.4,0-17-7.6-17-17l-3-67c0-9.4,7.6-17,17-17h67c9.4,0,17,7.6,17,17l-3,67
			C922.3,98.9,914.7,106.5,905.3,106.5z"/>
		<path class="st1" d="M1029.7,309.8l-78.9-170.1c-2.6-6.1-8.4-9.8-14.7-10.1c-0.6-0.1-1.2-0.1-1.8-0.1h-47v16.7
			c0,1.6-1.3,2.8-2.8,2.8h-16.3c-1.6,0-2.8-1.3-2.8-2.8v-16.7h-47c-0.6,0-1.2,0-1.8,0.1c-6.3,0.3-12.2,4-14.8,10.1l-78.9,170.1
			c-3.6,8.5,0.4,18.4,9.1,22.1l25.7,11c8.6,3.7,18.6-0.2,22.2-8.8l21.5-55.2v51.7c0,0.5,0,1.1,0.1,1.6c0,0.6-0.1,1.1-0.1,1.7
			l6,204.8c0,10.1,7.6,18.3,17,18.3h16c9.4,0,17-8.2,17-18.3l5.6-191.2h26.8l5.6,191.2c0,10.1,7.6,18.3,17,18.3h16
			c9.4,0,17-8.2,17-18.3l6-204.8c0-0.6,0-1.2-0.1-1.7c0-0.5,0.1-1.1,0.1-1.6v-51.5l21.4,55.1c3.6,8.5,13.6,12.5,22.2,8.8l25.7-11
			C1029.3,328.2,1033.3,318.3,1029.7,309.8z"/>
		<polygon class="st1" points="887.4,173 865.4,173 858.2,280 876.2,297.5 894.2,280 		"/>
	</g>
	<path class="st1" d="M1321.7,325.1l-64.6-159.5c-2.6-7.1-9.3-10.8-15.7-9.1c-1.1-0.3-2.2-0.4-3.4-0.4h-36.6l-15.1,28.1l-15.1-28.1
		H1137c-0.6,0-1.3,0.1-1.9,0.1c-5.9-0.7-11.7,3-14.1,9.4l-64.6,159.5c-3,8,0.4,17.3,7.4,20.7l21.1,10.3c7.1,3.5,15.2-0.2,18.2-8.2
		l19.1-56.3v37.3l-15.2,58.7c0,8.8,6.6,16,14.8,16h5.4l12.7,137.8c0.6,9.5,7.1,16.6,14.4,15.9l12.4-1.2c7.3-0.7,12.7-9,12-18.4
		l-5.8-134h28.7l-6.9,133.6c-0.7,9.5,4.6,17.8,11.9,18.6l12.4,1.4c7.3,0.8,13.8-6.2,14.5-15.7l13.9-137.9h5.8
		c8.2,0,14.8-7.1,14.8-16l-13.9-63.8c0-2.3-0.5-4.5-1.3-6.5v-35l22.2,65.5c3,8,11.1,11.7,18.2,8.2l21.1-10.3
		C1321.4,342.4,1324.7,333.1,1321.7,325.1z"/>
	<g>
		<path class="st1" d="M1215.6,134.4h-53.1c-8.2,0-14.8-7.1-14.8-16l-2.6-62.8c0-8.8,6.6-16,14.8-16h58.3c8.2,0,14.8,7.1,14.8,16
			l-2.6,62.8C1230.4,127.3,1223.8,134.4,1215.6,134.4z"/>
		<path class="st1" d="M1259.8,136.7h-10.9c-4.7,0-8.5-3.8-8.5-8.5v-13c0-4.7,3.8-8.5,8.5-8.5h10.8c4.7,0,8.5,3.8,8.5,8.5v13
			C1268.3,132.9,1264.5,136.7,1259.8,136.7z"/>
		<path class="st1" d="M1294,163.9h-10.8c-4.7,0-8.5-3.8-8.5-8.5v-13c0-4.7,3.8-8.5,8.5-8.5h10.8c4.7,0,8.5,3.8,8.5,8.5v13
			C1302.5,160.1,1298.7,163.9,1294,163.9z"/>
		<path class="st1" d="M1095,163.9h-10.8c-4.7,0-8.5-3.8-8.5-8.5v-13c0-4.7,3.8-8.5,8.5-8.5h10.8c4.7,0,8.5,3.8,8.5,8.5v13
			C1103.5,160.1,1099.7,163.9,1095,163.9z"/>
		<path class="st1" d="M1129.2,136.7h-10.8c-4.7,0-8.5-3.8-8.5-8.5v-13c0-4.7,3.8-8.5,8.5-8.5h10.8c4.7,0,8.5,3.8,8.5,8.5v13
			C1137.7,132.9,1133.9,136.7,1129.2,136.7z"/>
	</g>
</g>
<g>
	<g>
		<path class="st1" d="M215.1,205.4h-47.7c-7.3,0-13.3-6-13.3-13.3l-2.3-52.4c0-7.3,6-13.3,13.3-13.3h52.4c7.3,0,13.3,6,13.3,13.3
			l-2.3,52.4C228.4,199.4,222.5,205.4,215.1,205.4z"/>
		<path class="st1" d="M312.4,364.4l-61.7-133c-2-4.8-6.6-7.7-11.5-7.9c-0.5,0-0.9-0.1-1.4-0.1H201v13c0,1.2-1,2.2-2.2,2.2H186
			c-1.2,0-2.2-1-2.2-2.2v-13H147c-0.5,0-0.9,0-1.4,0.1c-4.9,0.2-9.5,3.1-11.6,7.9l-61.7,133c-2.8,6.7,0.3,14.4,7.1,17.3l20.1,8.6
			c6.8,2.9,14.5-0.2,17.4-6.9l16.8-43.2v40.4c0,0.4,0,0.8,0.1,1.3c0,0.4-0.1,0.9-0.1,1.4l4.7,160.2c0,7.9,6,14.3,13.3,14.3h12.5
			c7.3,0,13.3-6.4,13.3-14.3l4.4-149.5h21l4.4,149.5c0,7.9,6,14.3,13.3,14.3h12.5c7.3,0,13.3-6.4,13.3-14.3l4.7-160.2
			c0-0.5,0-0.9-0.1-1.4c0-0.4,0.1-0.8,0.1-1.3v-40.3l16.7,43.1c2.8,6.7,10.6,9.7,17.4,6.9l20.1-8.6
			C312.1,378.8,315.3,371.1,312.4,364.4z"/>
	</g>
	<path class="st1" d="M540.9,376.4l-50.6-124.8c-2.1-5.5-7.3-8.4-12.3-7.2c-0.9-0.2-1.7-0.3-2.7-0.3h-28.5l-11.8,22l-11.8-22h-26.8
		c-0.5,0-1,0-1.5,0.1c-4.6-0.5-9.1,2.3-11,7.4l-50.6,124.8c-2.3,6.3,0.3,13.5,5.8,16.2l16.5,8c5.5,2.7,11.9-0.2,14.2-6.4l14.9-44
		v29.2l-11.9,46c0,6.9,5.2,12.5,11.6,12.5h4.2l9.9,107.8c0.5,7.4,5.5,13,11.2,12.4l9.7-1c5.7-0.6,9.9-7,9.4-14.4l-4.5-104.8h22.4
		l-5.4,104.5c-0.6,7.4,3.6,13.9,9.3,14.5l9.7,1.1c5.7,0.6,10.8-4.9,11.3-12.3l10.9-107.9h4.6c6.4,0,11.6-5.6,11.6-12.5l-10.9-49.9
		c0-1.8-0.4-3.5-1-5.1v-27.4l17.4,51.2c2.3,6.3,8.7,9.1,14.2,6.4l16.5-8C540.6,389.9,543.2,382.6,540.9,376.4z"/>
	<g>
		<path class="st1" d="M457.9,227.2h-41.5c-6.4,0-11.6-5.6-11.6-12.5l-2-49.2c0-6.9,5.2-12.5,11.6-12.5H460
			c6.4,0,11.6,5.6,11.6,12.5l-2,49.2C469.4,221.6,464.3,227.2,457.9,227.2z"/>
		<path class="st1" d="M491.3,177.4h-4.8c-4.7,0-8.5-3.8-8.5-8.5v-6.5c0-4.7,3.8-8.5,8.5-8.5h4.8c4.7,0,8.5,3.8,8.5,8.5v6.5
			C499.9,173.6,496,177.4,491.3,177.4z"/>
		<path class="st1" d="M387.6,177.4h-4.8c-4.7,0-8.5-3.8-8.5-8.5v-6.5c0-4.7,3.8-8.5,8.5-8.5h4.8c4.7,0,8.5,3.8,8.5,8.5v6.5
			C396.2,173.6,392.3,177.4,387.6,177.4z"/>
	</g>
</g>
</svg>
