<?xml version="1.0" encoding="utf-8"?>
<!-- Generator: Adobe Illustrator 23.0.6, SVG Export Plug-In . SVG Version: 6.00 Build 0)  -->
<svg version="1.1" id="レイヤー_1" xmlns="http://www.w3.org/2000/svg" xmlns:xlink="http://www.w3.org/1999/xlink" x="0px"
	 y="0px" viewBox="0 0 144.9 29.4" style="enable-background:new 0 0 144.9 29.4;" xml:space="preserve">
<style type="text/css">
	.st0{enable-background:new    ;}
	.st1{fill:#FFFFFF;}
	.st2{display:none;}
	.st3{display:inline;}
	.st4{fill:none;stroke:#000000;stroke-width:3;stroke-linecap:round;stroke-linejoin:round;stroke-miterlimit:10;}
</style>
<g class="st0">
	<path class="st1" d="M14.7-21.3c1.1-1,2.4-1.8,3.7-2.5c0.2-0.1,0.3-0.4,0.3-0.6c0-0.4,0-1.1,0-1.8c0-0.3-0.1-0.4-0.4-0.4
		c-1.9,0.1-4.8,0.1-6.2-0.1c-1-0.2-1.1-0.9-1-1.4s0.6-1.1,1.3-1c1.8,0,3.8,0.3,5.9,0.2c0.3,0,0.4-0.2,0.5-0.5c0.1-1,0.5-3.5,1.6-5.4
		c0.3-0.5,1.1-0.7,1.7-0.3c0.5,0.4,0.7,1.3,0.3,1.9c-0.4,0.6-0.8,2-1,3.4c0,0.3,0.1,0.4,0.4,0.3c1.8-0.3,3.8-1.1,5.3-1.7
		c0.6-0.4,1.3-0.1,1.6,0.3c0.3,0.4,0.5,1.2-0.8,2c-1.2,0.7-3.8,1.6-6.3,2.1c-0.3,0-0.4,0.2-0.4,0.5s0,0.7,0,1.1
		c0,0.2,0.2,0.3,0.4,0.3c1.6-0.5,7-1.6,10.6,1.5c1.9,1.7,3.3,5.3,1.8,9.2C32-10,27.1-9,24.3-8.5c-1,0.1-1.6-0.2-1.7-1
		c-0.1-0.7,0.4-1.4,1.2-1.5c4.1-0.8,8.4-2.1,8.2-6.7c-0.1-2.6-1.7-3.8-2.5-4.3c-0.3-0.1-0.5,0-0.7,0.2c-1.4,1.6-6.9,8.2-9.6,10.1
		c-3.3,2.4-7.1,1.5-8.1-1C10.4-15,11.7-18.5,14.7-21.3z M19.7-15.7c0.2-0.2,0.3-0.5,0.3-0.8c-0.2-0.8-0.6-2.4-0.9-4.3
		c0-0.2-0.2-0.3-0.3-0.2c-3,1.7-4.5,4-4.8,4.9c-0.5,1.1-0.8,2.3,0.1,2.8c0.8,0.6,2.2,0.3,3.6-0.6C18.1-14.2,18.8-14.9,19.7-15.7z
		 M22.4-18.6c1.3-1.4,2.6-3,3.6-4.1c0.1-0.1,0-0.3-0.1-0.3c-1.8-0.1-3.3,0.3-4,0.6c-0.2,0.1-0.4,0.3-0.4,0.6
		c0.2,1.1,0.4,2.2,0.6,3.2C22.1-18.5,22.3-18.4,22.4-18.6z"/>
	<path class="st1" d="M59.2-26.8c0.5,0.5,0.9,1.2,1,1.9c0.2,0.7,0.2,1.6,0,2.7c-0.1,1-1,9.5-2.4,11.2c-1.8,1.9-4.2,0.8-6.4,0.2
		c-1.2-0.3-0.6-3,0.9-2.5c1,0.2,2.1,0.5,2.5,0.6c0.6,0.1,1.1,0,1.4-1.8c0.1-0.6,0.6-4,1.3-8.1c0.2-1.2,0.1-1.9-0.2-2.2
		c-0.4-0.3-1.3-0.4-2.7-0.1c-0.5,0.1-1,0.2-1.4,0.3c-0.3,0-0.5,0.2-0.6,0.5c-0.2,1-0.5,1.9-0.7,2.5c-1.7,5.4-3.2,9.1-4.6,11.6
		c-0.6,0.7-1.3,0.9-2,0.5s-0.6-1.4-0.3-1.9c1.8-3,3.6-8.1,4.9-12.3c0.1-0.2-0.1-0.4-0.3-0.3c-2,0.2-3.5,0.1-4.5-0.1
		c-0.7-0.2-1.1-1.1-0.9-1.7c0.2-0.7,1-1.1,1.8-0.9c0.4,0.1,1,0.4,4.4-0.1c0.2,0,0.5-0.2,0.5-0.5c0.4-1.5,0.7-2.6,0.8-3.2
		c0.2-1,0.4-1.8,0.2-2c-0.4-0.6-0.2-1.5,0.4-1.8c0.5-0.4,1.4-0.2,1.7,0.3c0.4,0.6,0.6,1.4,0.5,2.2c0,0.6-0.2,1.2-0.3,1.8
		c0,0-0.3,1.1-0.6,2.3c0,0.2,0.1,0.4,0.3,0.3H54c0.6-0.1,1.5-0.3,2.4-0.2C57.6-27.7,58.5-27.4,59.2-26.8z M67.3-24.4
		c0.9,1.1,3.1,3.7,2.6,6c-0.3,0.9-1,1.2-1.8,1.7c-0.2,0.1-0.4,0.2-0.7,0.2c-0.2,0-0.5-0.1-0.8-0.3c-0.3-0.2-0.5-0.5-0.5-0.9
		c-0.1-0.5,0.2-1.1,0.6-1.4c0.3-0.1,0.3-0.4,0.3-0.6c-1-2.1-2.9-3.9-3.7-4.7c-0.5-0.5-0.5-1.4,0-1.8c0.4-0.4,1-0.5,1.5-0.3
		c0.3,0.1,0.6,0.3,0.8,0.5C66-25.7,66.7-25.1,67.3-24.4z"/>
	<path class="st1" d="M81.4-9.1c-0.6,0-1.1-0.4-1.3-0.9c-0.6-2.2-1-4.6-1.2-7.2c-0.1-2.1-0.1-4.4,0-6.7c0.2-3.9,1-7.3,1.5-8.8
		c0.2-0.5,0.7-0.9,1.2-0.9c0.8,0,1.6,0.7,1.2,1.7c-0.4,1.1-1.1,4.3-1.3,8.2c-0.2,3.3-0.2,8.3,1.1,13C82.9-10,82.2-9.1,81.4-9.1z
		 M102.7-12.4c-0.5,0.7-1.4,0.6-1.8,0.3c-1.3-0.9-2.5-1.6-3.8-2.1c-0.2-0.1-0.4,0-0.4,0.3c-0.4,2.4-1.9,3.5-4.9,3.8
		c-4.2,0.3-6.1-1.5-6.2-3.5c0-3.3,3.8-4.3,6.7-4.3c0.7,0,1.3,0.1,1.6,0.1c0.2,0,0.4-0.2,0.4-0.4c0-0.6-0.1-1.3-0.1-2
		c-0.1-1.5-0.3-3.1-0.3-4.8c0-0.2-0.2-0.4-0.4-0.3c-2.3,0.1-6.8,0.2-7.8,0.2c-0.8,0-1.2-0.6-1.2-1.3c0-0.6,0.6-1.2,1.3-1.2
		c1.3,0,5.2-0.1,7.6-0.3c0.2,0,0.4-0.2,0.4-0.5c-0.1-1.3-0.3-2.1-0.5-2.4c-0.3-0.8-1.3-1.3-0.6-2.4c0.8-1.3,2.5-0.2,3.1,1.5
		c0.3,0.8,0.5,1.9,0.5,3.2c0,0.3,0.2,0.4,0.5,0.4c1.3-0.1,2.5-0.2,3.4-0.3h0.1c0.6,0,1.1,0.5,1.2,1.1c0.1,0.5-0.3,1.2-1,1.4
		c-1,0.1-2.3,0.2-3.7,0.3c-0.2,0-0.4,0.2-0.4,0.4c0,1.6,0.1,3.2,0.2,4.7c0.1,1,0.1,2,0.2,2.8c0,0.3,0.1,0.5,0.4,0.6
		c1.7,0.7,3.5,1.6,5.1,2.8C103-13.8,103.1-13,102.7-12.4z M88.1-13.7c0,0.3,0.2,0.6,0.8,0.8c2.2,0.5,3.9,0.3,4.7-0.4
		c0.2-0.3,0.4-0.8,0.5-1.4c0-0.2-0.1-0.4-0.4-0.5c-0.5-0.1-1.1-0.1-1.6-0.1C89-15.3,88.1-14.2,88.1-13.7z M100.5-32.9
		c0.7,0.6,1.2,1.2,1.5,1.7c0.2,0.6,0.2,1.4-0.5,1.8c-0.7,0.3-1.4-0.1-1.7-0.8c-0.2-0.4-0.7-1.2-1.5-1.7c-0.5-0.4-1-1-0.6-1.5
		C98.4-34.3,99.9-33.4,100.5-32.9z M103.4-34.5c0.7,0.6,1.2,1.2,1.5,1.8c0.3,0.6,0.3,1.3-0.4,1.7c-0.7,0.3-1.4-0.1-1.7-0.7
		c-0.2-0.4-0.7-1.2-1.4-1.7c-0.5-0.4-1-1-0.6-1.6C101.3-36,102.8-35.1,103.4-34.5z"/>
	<path class="st1" d="M137.4-14.6c0.3,0.4,0.7,0.9,0.6,1.5c-0.1,1.2-1.8,1.6-2.4,0.4c-0.3-0.5-0.7-1-1.1-1.3
		c-0.2-0.1-0.4-0.1-0.5,0.1c-0.6,1-1.4,1.8-2.5,2.2c-0.9,0.5-1.9,0.7-3,0.7c-1.8,0-4.3-0.9-5-2.5c-0.8-1.7,0.4-3.7,2.8-4.8
		c2-0.9,4.2-0.7,5.9-0.2c0.2,0.1,0.4,0,0.4-0.2c0.8-5.8-0.5-8.7-2.8-8.9c-2.7-0.2-6.1,2.4-9,5.5c-0.2,0.2-0.3,0.5-0.3,0.8
		c0,4.3,0.1,8.7,0.1,11.1c0,0.7-0.4,1.3-1.2,1.3l0,0c-0.7,0-1.3-0.5-1.3-1.3c0-1.7-0.1-4.9-0.1-8.4c0-0.1-0.1-0.1-0.1,0
		c-1.4,1.7-2.5,3.3-3.2,4.4c-0.4,0.5-1.2,0.6-1.8,0.2c-0.5-0.4-0.7-1.2-0.2-1.7c1.6-2,3.9-6.2,5.1-8.9c0.1-0.3,0.2-0.6,0.2-1
		c0-0.1,0-0.1,0-0.2c0-0.2-0.2-0.3-0.3-0.2c-1.8,0.6-3.9,1.4-5,1.6c-0.7,0.1-1.4-0.4-1.5-1c-0.1-0.7,0.3-1.4,1-1.6
		c1.1-0.1,3.7-1.1,5.4-1.7c0.2-0.1,0.4-0.3,0.4-0.6c0-2.2,0.1-4,0.1-4.8c0.1-0.7,0.7-1.2,1.5-1.2c0.6,0,1.1,0.7,1,1.4
		c0,0.6-0.1,1.8-0.1,3.5c0,0.2,0.2,0.4,0.4,0.4c0.4,0.1,0.7,0.3,0.8,0.4c0.3,0.2,0.6,0.7,0.4,1.6c-0.1,0.6-1,2-1.4,2.8l0,0
		c1.3-1.1,2.4-2,3.5-2.8c2.4-1.7,4.2-2.1,5.6-2c1.3,0.1,2.7,0.7,3.5,1.7c0.9,1.2,1.4,2.7,1.7,4.7c0.2,1.8,0.1,3.7-0.1,6
		c0,0.3,0.1,0.5,0.3,0.7C136.3-16,137-15.2,137.4-14.6z M130.3-14c0.5-0.2,1.1-0.6,1.5-1.3c0.1-0.2,0-0.4-0.2-0.5
		c-2.3-0.9-4.1-0.5-5.2,0.3c-0.8,0.6-0.8,0.9-0.4,1.3C126.7-13.7,128.7-13.3,130.3-14z"/>
</g>
<g>
	<path class="st1" d="M42.1,14.6c-0.2-0.3-4.5-8-16.5-8.3c-0.3-1.4-0.3-2.4-0.3-2.5c0-0.6-0.5-1.1-1.1-1.1l0,0
		c-0.6,0-1.1,0.5-1.1,1.1c0,0.1,0,1.1,0.2,2.6c-1.6,0.1-3.1,0.3-4.4,0.7c-0.3-1.1-0.3-1.8-0.3-1.9c0-0.6-0.5-1.1-1.1-1.1l0,0
		c-0.6,0-1.1,0.5-1.1,1.1c0,0.1,0,1,0.4,2.5C13.2,9,10.3,11.1,8,13.2c-1.4-1.6-2.5-3.1-3.3-4.3c-1.5-1.8-2.1-2.6-3-2.6
		c-0.5,0-0.9,0.2-1.2,0.6c-1,1.3-0.2,5.1,0.7,8.2c-0.5,1.5-1.8,6.5-0.8,8.1c0.3,0.5,0.8,0.7,1.3,0.7c1,0,1.5-0.8,2.7-2.6
		c0.9-1.3,2-3,3.6-4.8c2.3,2.3,5.2,4.5,8.8,5.9C16.4,24,16.4,25,16.4,25c0,0.6,0.5,1.1,1.1,1.1l0,0c0.6,0,1.1-0.5,1.1-1.1
		c0,0,0-0.7,0.3-1.9c1.4,0.4,2.9,0.6,4.5,0.8c-0.3,1.6-0.3,2.7-0.3,2.8c0,0.6,0.5,1.1,1.1,1.1l0,0c0.6,0,1.1-0.5,1.1-1.1
		c0-0.1,0-1.2,0.3-2.7c3.7-0.1,6.6-0.7,8.8-1.6c0.1,0,0.2,0,0.3-0.1l0,0l0,0c0.1,0,0.1-0.1,0.2-0.1c5.4-2.4,7.1-6.3,7.2-6.5
		C42.2,15.2,42.2,14.9,42.1,14.6z M2.4,20.1c0,0.1-0.1,0.1-0.1,0.2c0.2-1.7,0.8-4.1,1.1-4.7c0.1-0.2,0.1-0.5,0-0.7
		c-0.5-1.8-0.9-3.8-1.1-5.1c0.1,0.2,0.3,0.4,0.4,0.6c0.9,1.3,2.1,2.9,3.6,4.6C4.5,16.9,3.2,18.8,2.4,20.1z M31.9,9.6
		c-1.5,1.2-2.7,2.4-3.8,3.7c-1-1.7-1.7-3.3-2.1-4.7C28.3,8.7,30.3,9.1,31.9,9.6z M32.5,12.1c-0.3,1.7-0.5,3.9-0.2,6.1
		c-1.1-1-2-2-2.8-3C30.3,14.2,31.3,13.1,32.5,12.1z M9.4,14.9c2-2,4.6-3.8,7.9-5c0.6,1.5,1.4,3.3,2.7,5.2c-1.3,1.9-2.1,3.6-2.7,5.1
		C14.1,18.9,11.4,17,9.4,14.9z M19.5,20.9c0.6-1.5,1.4-3.2,2.8-5.2l0,0c0,0,0-0.1,0.1-0.1c0.2-0.4,0.1-0.8-0.1-1.2
		c-1.4-2-2.2-3.7-2.8-5.2c1.3-0.3,2.7-0.5,4.3-0.6c0.5,1.9,1.4,4.3,3,6.7c-1.5,2.3-2.4,4.5-2.9,6.4C22.2,21.6,20.8,21.3,19.5,20.9z
		 M28.1,17.2c1,1.2,2.2,2.4,3.6,3.6c-1.6,0.5-3.4,0.8-5.6,0.9C26.6,20.3,27.2,18.8,28.1,17.2z M34.9,19.6c-0.9-3-0.3-6.7,0.1-8.6
		c2.7,1.5,4.2,3.3,4.8,4.2C39.2,16.1,37.8,18,34.9,19.6z"/>
	<circle class="st1" cx="36.9" cy="15.2" r="1.2"/>
</g>
<g class="st0">
	<path class="st1" d="M49.5,11.5c-0.8,0-1.5-0.7-1.5-1.5s0.7-1.5,1.5-1.5h7.3c1.2,0,1.9,1.2,1.5,2.3l-6.1,13.9
		c-0.4,0.9-1.3,1.5-2.2,1.5c-0.8,0-1.3-0.8-1-1.5l5.5-12.6c0.1-0.3-0.1-0.6-0.4-0.6C54.1,11.5,49.5,11.5,49.5,11.5z M62.2,29.4
		c-0.8,0-1.5-0.6-1.5-1.5V2c0-0.8,0.7-1.5,1.5-1.5s1.5,0.7,1.5,1.5v25.9C63.7,28.8,63,29.4,62.2,29.4z M74.1,6.6c0.7,0,1,1,0.4,1.4
		l-5.4,3.6c-0.3,0.2-0.4,0.6-0.2,1l6.8,12.2c0.4,0.6-0.1,1.5-0.8,1.5c-1.1,0-2-0.5-2.5-1.5l-6.5-11.6c-0.7-1.2-0.3-2.8,0.9-3.5
		L69.3,8c1.4-0.9,2.9-1.4,4.5-1.4H74.1z"/>
	<path class="st1" d="M86.9,0.6c0.7,0,1.4,0.6,1.4,1.4v0.6c0,0.3,0.2,0.5,0.5,0.5h2.9c0.8,0,1.4,0.6,1.4,1.4c0,0.8-0.6,1.4-1.4,1.4
		h-4c-0.3,0-0.6,0.3-0.6,0.6v2.8c0,0.4,0.3,0.6,0.6,0.6h2.8c1.4,0,2.4,1.1,2.4,2.5L92.5,27c0,0.8-0.7,1.4-1.5,1.4s-1.4-0.6-1.4-1.4
		L90,13.5c0-0.4-0.3-0.7-0.6-0.7h-2c-0.4,0-0.7,0.3-0.7,0.7l-1.6,13.6c-0.1,0.8-0.7,1.4-1.6,1.4c-0.8,0-1.4-0.6-1.3-1.4l2-17V6.6
		c0-0.3-0.2-0.5-0.5-0.5h-0.6c-0.8,0-1.4-0.6-1.4-1.4c0-0.7,0.6-1.4,1.4-1.4H85c0.3,0,0.5-0.2,0.5-0.5V2.2
		C85.5,1.3,86.1,0.6,86.9,0.6z M98.3,5.9c-0.4,0-0.7,0.2-0.8,0.6l-0.2,0.8c-0.2,0.8-1,1.4-1.9,1.4c-0.7,0-1.3-0.7-1.1-1.4l1.6-5.4
		c0.2-0.8,1-1.4,1.9-1.4c0.7,0,1.3,0.7,1.1,1.4l-0.2,0.6C98.6,2.8,98.8,3,99.1,3h10.1c0.8,0,1.4,0.6,1.4,1.4c0,0.8-0.6,1.4-1.4,1.4
		H98.3V5.9z M109.9,27.6c0.3,0.6-0.1,1.4-0.8,1.4c-1,0-1.9-0.5-2.4-1.4l-3.3-5.8c-0.2-0.2-0.5-0.2-0.6,0l-2.9,5.8
		c-0.4,0.8-1.3,1.4-2.2,1.4c-0.7,0-1.2-0.7-0.9-1.4l3.6-7.2c0.1-0.3,0-0.6-0.3-0.6h-3.2c-0.7,0-1.4-0.6-1.4-1.4s0.6-1.4,1.4-1.4h4.1
		c0.4,0,0.6-0.3,0.6-0.7v-3c0-0.4-0.3-0.7-0.6-0.7h-1.5c-0.3,0-0.5,0.2-0.6,0.5l-0.1,0.4c-0.3,0.8-1,1.4-1.9,1.4
		c-0.7,0-1.2-0.7-1-1.4l1.4-4.4c0.3-0.8,1-1.4,1.9-1.4c0.7,0,1.2,0.7,1,1.4l-0.1,0.3c-0.1,0.2,0.1,0.4,0.3,0.4h7.2
		c0.7,0,1.4,0.6,1.4,1.4s-0.6,1.4-1.4,1.4h-2.5c-0.3,0-0.6,0.3-0.6,0.7v3c0,0.4,0.3,0.7,0.6,0.7h4.1c0.8,0,1.4,0.6,1.4,1.4
		s-0.6,1.4-1.4,1.4h-3.1c-0.3,0-0.5,0.3-0.3,0.6L109.9,27.6z"/>
	<path class="st1" d="M142.4,2.7c1.4,0,2.5,1.1,2.5,2.5v2.2c0,0.7-0.6,1.3-1.3,1.3s-1.3-0.6-1.3-1.3V5.9c0-0.4-0.3-0.6-0.6-0.6h-9.6
		c-0.4,0-0.7,0.3-0.7,0.6v1.5c0,0.7-0.6,1.3-1.3,1.3s-1.3-0.6-1.3-1.3V7.2c0-0.2-0.2-0.4-0.4-0.4h-0.2c-1.5,0-2.8-0.5-3.9-1.5
		l-1.8-1.5c-0.3-0.2-0.7-0.2-1,0l-1.6,1.6c-0.9,0.8-2.1,1.4-3.3,1.4c-0.6,0-1-0.9-0.5-1.4l4-4c1-1,2.5-1,3.6-0.1l4.5,3.9
		c0.2,0.2,0.5,0,0.5-0.2c0-1.3,1.1-2.4,2.4-2.4h3.8c0.3,0,0.5-0.2,0.5-0.5V1.3c0-0.7,0.6-1.3,1.3-1.3s1.3,0.6,1.3,1.3v0.8
		c0,0.3,0.2,0.5,0.6,0.5h3.8V2.7z M123.7,22.7c-0.2-0.7,0.3-1.4,1-1.4c0.9,0,1.6,0.5,1.9,1.4l1.4,5c0.2,0.7-0.3,1.4-1,1.4
		c-0.9,0-1.6-0.5-1.8-1.4l-0.1-0.2c-0.1-0.2-0.3-0.4-0.6-0.3l-5.5,1.5c-1.2,0.3-2.4-0.6-2.4-1.8V10.8c0-1.4,1.1-2.5,2.4-2.5h1.3
		c0.3,0,0.5-0.2,0.5-0.5V7.2c0-0.7,0.6-1.3,1.3-1.3c0.7,0,1.4,0.6,1.4,1.3v0.6c0,0.3,0.2,0.5,0.5,0.5h0.8c1.4,0,2.5,1.1,2.5,2.5v6.3
		c0,1.4-1.1,2.4-2.5,2.4h-5.1c-0.4,0-0.6,0.3-0.6,0.7v5c0,0.3,0.3,0.6,0.6,0.5l3.8-1.1c0.4-0.1,0.6-0.5,0.5-0.8L123.7,22.7z
		 M119.8,10.9c-0.4,0-0.6,0.3-0.6,0.7V12c0,0.4,0.3,0.6,0.6,0.6h4.4c0.4,0,0.7-0.3,0.7-0.6v-0.4c0-0.4-0.3-0.7-0.7-0.7H119.8z
		 M119.8,15.3c-0.4,0-0.6,0.3-0.6,0.6v0.4c0,0.3,0.3,0.6,0.6,0.6h4.4c0.4,0,0.7-0.3,0.7-0.6v-0.4c0-0.3-0.3-0.6-0.7-0.6H119.8z
		 M133.8,29c-1.4,0-2.5-1.1-2.5-2.4V10.2c0-1.4,1.1-2.4,2.5-2.4h5.9c1.4,0,2.5,1.1,2.5,2.4v4.1c0,1.4-1.1,2.5-2.5,2.5h-5
		c-0.3,0-0.6,0.3-0.6,0.6v1.3c0,0.3,0.3,0.6,0.6,0.6h5.8c1.4,0,2.5,1.1,2.5,2.5v4.7c0,1.4-1.1,2.4-2.5,2.4L133.8,29L133.8,29z
		 M134.7,10.4c-0.3,0-0.6,0.3-0.6,0.7v2.4c0,0.4,0.3,0.6,0.6,0.6h4.2c0.4,0,0.6-0.3,0.6-0.6v-2.4c0-0.4-0.3-0.7-0.6-0.7H134.7z
		 M140.3,22.8c0-0.4-0.3-0.6-0.6-0.6h-5c-0.3,0-0.6,0.3-0.6,0.6v3c0,0.3,0.3,0.6,0.6,0.6h5c0.3,0,0.6-0.3,0.6-0.6V22.8z"/>
</g>
<g id="レイヤー_3" class="st2">
	<g class="st3">
		<path class="st4" d="M104.9,17.3c0,0-0.1,5.6,5.3,13.2"/>
		<path class="st4" d="M136.2,30.5c0,0-5.5-10.2-21.3-10.2c-22.1,0-29,20.4-31,20.4s0.6-9.4,0.9-10.2c0,0-2.9-10.2-0.8-10.2
			s10,20.4,31,20.4C132.1,40.7,136.2,30.5,136.2,30.5z"/>
		<path class="st4" d="M113.8,45.8c0,0-0.2-14.1,13.4-23"/>
		<path class="st4" d="M113.8,15.5c0,0-0.2,14.1,13.4,23"/>
		<path class="st4" d="M104.9,43.6c0,0-0.1-5.6,5.3-13.2"/>
		<path class="st4" d="M127.2,22.8c0,0-2.9,9.4,0,15.7"/>
	</g>
	<circle class="st3" cx="130.8" cy="30.7" r="1.6"/>
</g>
</svg>
